<?xml version="1.0" encoding="utf-8"?>
<!-- Generator: Adobe Illustrator 19.0.0, SVG Export Plug-In . SVG Version: 6.00 Build 0)  -->
<svg version="1.1" id="Edited" xmlns="http://www.w3.org/2000/svg" xmlns:xlink="http://www.w3.org/1999/xlink" x="0px" y="0px"
	 viewBox="0 0 440.1 553" enable-background="new 0 0 440.1 553" xml:space="preserve">
<g id="XMLID_34_">
	<path id="XMLID_35_" fill="#707070" d="M125.5,540.6l-5.3,3.1l-5.3,3.1l-5.3,3.1l-5.3,3.1l-6.4-3.8l-6.4-3.8l-6.4-3.8l-6.4-3.8
		l-6.4-3.8l-6.4-3.8l-6.4-3.8l5.3-3.1l6.4,3.8l6.4,3.8l5.3-3.1l5.3-3.1l5.3-3.1l5.3-3.1l6.4,3.8l6.4,3.8l6.4,3.8l6.4,3.8l6.4,3.8
		L125.5,540.6z M113.7,539.9l5.3-3.1l-6.4-3.8l-6.4-3.8l-6.4-3.8l-5.3,3.1l-5.3,3.1l-5.3,3.1l6.4,3.8l6.4,3.8l6.4,3.8l5.3-3.1
		L113.7,539.9z"/>
	<path id="XMLID_39_" fill="#707070" d="M136.1,534.5l-6.4-3.8l-6.4-3.8l-6.4-3.8l-6.4-3.8l-6.4-3.8l5.3-3.1l5.3-3.1l5.3-3.1
		l5.3-3.1l6.4,3.8l-5.3,3.1l-5.3,3.1l-5.3,3.1l6.4,3.8l6.4,3.8l6.4,3.8l6.4,3.8L136.1,534.5z"/>
	<path id="XMLID_41_" fill="#707070" d="M184.1,506.6l-5.3,3.1l-5.3,3.1l-5.3,3.1l-5.3,3.1l-6.4-3.8l-6.4-3.8l-6.4-3.8l-6.4-3.8
		l-6.4-3.8l5.3-3.1l5.3-3.1l5.3-3.1l5.3-3.1l5.3-3.1l6.4,3.8l6.4,3.8l6.4,3.8l6.4,3.8l6.4,3.8L184.1,506.6z M172.4,505.9l5.3-3.1
		l-6.4-3.8l-6.4-3.8l-6.4-3.8l-5.3,3.1l-5.3,3.1l-5.3,3.1l6.4,3.8l6.4,3.8l6.4,3.8l5.3-3.1L172.4,505.9z"/>
	<path id="XMLID_44_" fill="#707070" d="M216.1,488.1l-5.3,3.1l-5.3,3.1l-5.3,3.1l-5.3,3.1l-6.4-3.8l-6.4-3.8l-6.4-3.8l-6.4-3.8
		l-6.4-3.8l5.3-3.1l6.4,3.8l6.4,3.8l6.4,3.8l6.4,3.8l5.3-3.1l-6.4-3.8l-6.4-3.8l-6.4-3.8l5.3-3.1l6.4,3.8l6.4,3.8l6.4,3.8l5.3-3.1
		l-6.4-3.8l-6.4-3.8l-6.4-3.8l-6.4-3.8l5.3-3.1l6.4,3.8l6.4,3.8l6.4,3.8l6.4,3.8l6.4,3.8L216.1,488.1z"/>
	<path id="XMLID_46_" fill="#707070" d="M248.1,469.6l-5.3,3.1l-5.3,3.1l-5.3,3.1l-5.3,3.1l-6.4-3.8l5.3-3.1l5.3-3.1l5.3-3.1
		l5.3-3.1l-6.4-3.8l-5.3,3.1l-5.3,3.1l-5.3,3.1l-5.3,3.1l-6.4-3.8l-6.4-3.8l-6.4-3.8l5.3-3.1l5.3-3.1l5.3-3.1l5.3-3.1l5.3-3.1
		l6.4,3.8l-5.3,3.1l-5.3,3.1l-5.3,3.1l-5.3,3.1l6.4,3.8l5.3-3.1l5.3-3.1l5.3-3.1l5.3-3.1l6.4,3.8l6.4,3.8l6.4,3.8L248.1,469.6z"/>
	<path id="XMLID_48_" fill="#707070" d="M273.7,447.2l5.3-3.1l6.4,3.8l-5.3,3.1l-5.3,3.1l-5.3,3.1l-5.3,3.1l-5.3,3.1l-6.4-3.8
		l-6.4-3.8l-6.4-3.8L233,448l-6.4-3.8l5.3-3.1l5.3-3.1l5.3-3.1l5.3-3.1l5.3-3.1l6.4,3.8l6.4,3.8l6.4,3.8l-5.3,3.1l-5.3,3.1l-5.3,3.1
		l-5.3,3.1l6.4,3.8l5.3-3.1l5.3-3.1L273.7,447.2z M255.5,442.6l5.3-3.1l-6.4-3.8l-5.3,3.1l-5.3,3.1l-5.3,3.1l6.4,3.8l5.3-3.1
		L255.5,442.6z"/>
	<path id="XMLID_51_" fill="#707070" d="M290.8,444.8l-6.4-3.8l-6.4-3.8l-6.4-3.8l-6.4-3.8l-6.4-3.8l5.3-3.1l5.3-3.1l5.3-3.1
		l5.3-3.1l6.4,3.8l-5.3,3.1l-5.3,3.1l-5.3,3.1l6.4,3.8l6.4,3.8l6.4,3.8l6.4,3.8L290.8,444.8z"/>
	<path id="XMLID_53_" fill="#707070" d="M338.8,417l-5.3,3.1l-5.3,3.1l-5.3,3.1l-5.3,3.1l-6.4-3.8l5.3-3.1l5.3-3.1l5.3-3.1l5.3-3.1
		l-6.4-3.8l-5.3,3.1l-5.3,3.1l-5.3,3.1l-5.3,3.1l-6.4-3.8l-6.4-3.8l-6.4-3.8l5.3-3.1l5.3-3.1l5.3-3.1l5.3-3.1l5.3-3.1l6.4,3.8
		l-5.3,3.1l-5.3,3.1l-5.3,3.1l-5.3,3.1l6.4,3.8l5.3-3.1l5.3-3.1l5.3-3.1l5.3-3.1l6.4,3.8l6.4,3.8l6.4,3.8L338.8,417z"/>
	<path id="XMLID_55_" fill="#707070" d="M383.7,406.2l-5.3,3.1l-5.3,3.1l-5.3,3.1l-5.3,3.1l-6.4-3.8l5.3-3.1l5.3-3.1l5.3-3.1
		l5.3-3.1l-6.4-3.8l-5.3,3.1l-5.3,3.1l-5.3,3.1l-5.3,3.1L343,407l-6.4-3.8l-6.4-3.8l-6.4-3.8l-6.4-3.8l5.3-3.1l6.4,3.8l6.4,3.8
		l6.4,3.8l6.4,3.8l5.3-3.1l5.3-3.1l5.3-3.1l-6.4-3.8l-6.4-3.8l-6.4-3.8l-6.4-3.8l5.3-3.1l6.4,3.8l6.4,3.8l6.4,3.8l6.4,3.8l6.4,3.8
		l6.4,3.8l6.4,3.8L383.7,406.2z"/>
	<path id="XMLID_57_" fill="#707070" d="M402.8,379.9l-6.4-3.8l-6.4-3.8l-6.4-3.8l-6.4-3.8l-5.3,3.1l-5.3,3.1l-5.3,3.1l6.4,3.8
		l6.4,3.8l6.4,3.8l6.4,3.8l-5.3,3.1l-6.4-3.8l-6.4-3.8l-6.4-3.8l-6.4-3.8l-6.4-3.8l5.3-3.1l5.3-3.1l5.3-3.1l5.3-3.1l5.3-3.1l6.4,3.8
		l6.4,3.8l6.4,3.8l6.4,3.8l6.4,3.8L402.8,379.9z"/>
	<path id="XMLID_59_" fill="#707070" d="M415.4,349.9L409,346l-5.3,3.1l-5.3,3.1l-5.3,3.1l6.4,3.8l6.4,3.8l6.4,3.8l5.3-3.1l5.3-3.1
		l5.3-3.1l-6.4-3.8l5.3-3.1l6.4,3.8l6.4,3.8l-5.3,3.1l-5.3,3.1l-5.3,3.1l-5.3,3.1l-5.3,3.1l-6.4-3.8l-6.4-3.8l-6.4-3.8l-6.4-3.8
		l-6.4-3.8l5.3-3.1l5.3-3.1l5.3-3.1l5.3-3.1l5.3-3.1l6.4,3.8l6.4,3.8L415.4,349.9z"/>
</g>
<g id="XMLID_24_">
	<polygon id="XMLID_33_" fill="#212121" points="306,147.2 204.5,88.2 204.4,29.5 305.9,88.5 	"/>
	<polygon id="XMLID_32_" fill="#212121" points="306.7,382 205.2,323 205,264.3 306.5,323.3 	"/>
	<polygon id="XMLID_31_" fill="#212121" points="255.5,352.8 153.9,293.8 153.8,235.1 255.3,294.1 	"/>
	<polygon id="XMLID_30_" fill="#212121" points="255.1,235.4 153.6,176.4 153.4,117.7 255,176.7 	"/>
	<polygon id="XMLID_29_" fill="#212121" points="204.2,323.6 102.7,264.6 102.5,205.9 204,264.9 	"/>
	<polygon id="XMLID_28_" fill="#212121" points="153.3,411.8 51.8,352.8 51.6,294.1 153.1,353.1 	"/>
	<polygon id="XMLID_27_" fill="#212121" points="153,294.4 51.4,235.4 51.3,176.7 152.8,235.7 	"/>
	<polygon id="XMLID_26_" fill="#212121" points="101.7,265.2 0.2,206.2 0,147.5 101.5,206.5 	"/>
	<polygon id="XMLID_25_" fill="#212121" points="102.3,500 0.8,441 0.7,382.3 102.2,441.3 	"/>
</g>
<g id="XMLID_14_">
	<polygon id="XMLID_23_" fill="#404040" points="305.9,88.5 204.4,29.5 255.4,0 357,59 	"/>
	<polygon id="XMLID_22_" fill="#404040" points="306.5,323.3 205,264.3 256.1,234.8 357.6,293.8 	"/>
	<polygon id="XMLID_21_" fill="#404040" points="255.3,294.1 153.8,235.1 204.9,205.6 306.4,264.6 	"/>
	<polygon id="XMLID_20_" fill="#404040" points="255,176.7 153.4,117.7 204.5,88.2 306,147.2 	"/>
	<polygon id="XMLID_19_" fill="#404040" points="204,264.9 102.5,205.9 153.6,176.4 255.1,235.4 	"/>
	<polygon id="XMLID_18_" fill="#404040" points="153.1,353.1 51.6,294.1 102.7,264.6 204.2,323.6 	"/>
	<polygon id="XMLID_17_" fill="#404040" points="152.8,235.7 51.3,176.7 102.4,147.2 203.9,206.2 	"/>
	<polygon id="XMLID_16_" fill="#404040" points="101.5,206.5 0,147.5 51.1,118 152.6,177 	"/>
	<polygon id="XMLID_15_" fill="#404040" points="102.2,441.3 0.7,382.3 51.8,352.8 153.3,411.8 	"/>
</g>
<g id="XMLID_5_">
	<polygon id="XMLID_13_" fill="#707070" points="357,59 357.1,117.7 306,147.2 305.9,88.5 	"/>
	<polygon id="XMLID_12_" fill="#707070" points="357.6,293.8 357.8,352.5 306.7,382 306.5,323.3 	"/>
	<polygon id="XMLID_11_" fill="#707070" points="306.4,264.6 306.5,323.3 255.5,352.8 255.3,294.1 	"/>
	<polygon id="XMLID_10_" fill="#707070" points="306,147.2 306.2,205.9 255.1,235.4 255,176.7 	"/>
	<polygon id="XMLID_9_" fill="#707070" points="255.1,235.4 255.3,294.1 204.2,323.6 204,264.9 	"/>
	<polygon id="XMLID_8_" fill="#707070" points="204.2,323.6 204.4,382.3 153.3,411.8 153.1,353.1 	"/>
	<polygon id="XMLID_7_" fill="#707070" points="203.9,206.2 204,264.9 153,294.4 152.8,235.7 	"/>
	<polygon id="XMLID_6_" fill="#707070" points="152.6,177 152.8,235.7 101.7,265.2 101.5,206.5 	"/>
	<polygon id="XMLID_61_" fill="#707070" points="153.3,411.8 153.5,470.5 102.3,500 102.2,441.3 	"/>
</g>
</svg>
