<svg width="128" height="128" version="1.1" viewBox="-500 277 128 128" xmlns="http://www.w3.org/2000/svg"><g fill="#0A323D"><polygon points="-403.5 314.7 -429.4 299.5 -429.5 284.6 -403.5 299.6"/><polygon points="-403.3 374.8 -429.3 359.7 -429.3 344.6 -403.4 359.8"/><polygon points="-416.4 367.3 -442.4 352.2 -442.4 337.2 -416.5 352.3"/><polygon points="-416.5 337.3 -442.5 322.1 -442.5 307.1 -416.5 322.2"/><polygon points="-429.5 359.8 -455.5 344.7 -455.5 329.7 -429.6 344.8"/><polygon points="-442.5 382.4 -468.5 367.3 -468.5 352.3 -442.6 367.3"/><polygon points="-442.6 352.3 -468.6 337.3 -468.6 322.2 -442.7 337.3"/><polygon points="-455.7 344.8 -481.8 329.8 -481.8 314.8 -455.8 329.8"/><polygon points="-455.6 405 -481.5 389.9 -481.7 374.8 -455.6 390"/></g><g fill="#267D91"><polygon points="-403.5 299.6 -429.5 284.6 -416.4 277 -390.5 292"/><polygon points="-403.4 359.8 -429.3 344.6 -416.3 337.1 -390.2 352.2"/><polygon points="-416.5 352.3 -442.4 337.2 -429.4 329.6 -403.4 344.7"/><polygon points="-416.5 322.2 -442.5 307.1 -429.4 299.5 -403.5 314.7"/><polygon points="-429.6 344.8 -455.5 329.7 -442.5 322.1 -416.5 337.3"/><polygon points="-442.6 367.3 -468.5 352.3 -455.5 344.7 -429.5 359.8"/><polygon points="-442.7 337.3 -468.6 322.2 -455.6 314.7 -429.6 329.8"/><polygon points="-455.8 329.8 -481.8 314.8 -468.7 307.2 -442.7 322.3"/><polygon points="-455.6 390 -481.7 374.8 -468.5 367.3 -442.5 382.4"/></g><g fill="#71D2E2"><polygon points="-390.5 292 -390.3 307.1 -403.5 314.7 -403.5 299.6"/><polygon points="-390.2 352.2 -390.2 367.2 -403.3 374.8 -403.4 359.8"/><polygon points="-403.4 344.7 -403.4 359.8 -416.4 367.3 -416.5 352.3"/><polygon points="-403.5 314.7 -403.4 329.7 -416.5 337.3 -416.5 322.2"/><polygon points="-416.5 337.3 -416.5 352.3 -429.5 359.8 -429.6 344.8"/><polygon points="-429.5 359.8 -429.5 374.8 -442.5 382.4 -442.6 367.3"/><polygon points="-429.6 329.8 -429.6 344.8 -442.6 352.3 -442.7 337.3"/><polygon points="-442.7 322.3 -442.7 337.3 -455.7 344.8 -455.8 329.8"/><polygon points="-442.5 382.4 -442.5 397.4 -455.6 405 -455.6 390"/></g></svg>