<?xml version="1.0" encoding="utf-8"?>
<!-- Generator: Adobe Illustrator 19.0.0, SVG Export Plug-In . SVG Version: 6.00 Build 0)  -->
<svg version="1.1" id="Layer_1" xmlns="http://www.w3.org/2000/svg" xmlns:xlink="http://www.w3.org/1999/xlink" x="0px" y="0px"
	 viewBox="0 0 96.3 150" style="enable-background:new 0 0 96.3 150;" xml:space="preserve">
<style type="text/css">
	.st0{fill:#6C8036;}
	.st1{fill:#80983C;}
	.st2{fill:#A3C53A;}
	.st3{fill:#FFFFFF;}
</style>
<g id="XMLID_27_">
	<polygon id="XMLID_160_" class="st0" points="0,94.4 0,127.8 9.6,133.3 9.6,100 	"/>
	<polygon id="XMLID_162_" class="st0" points="19.3,27.8 19.3,38.9 48.1,55.6 48.1,44.4 	"/>
	<polygon id="XMLID_163_" class="st0" points="38.5,150 28.9,144.4 28.9,122.2 38.5,127.8 	"/>
	<polygon id="XMLID_164_" class="st0" points="57.8,138.9 48.1,133.3 48.1,111.1 57.8,116.7 	"/>
	<polygon id="XMLID_165_" class="st0" points="9.6,77.8 38.5,94.4 38.5,138.9 9.6,122.2 	"/>
	<polygon id="XMLID_166_" class="st0" points="77,50 77,83.3 86.7,88.9 86.7,55.6 	"/>
	<polygon id="XMLID_167_" class="st0" points="57.8,5.6 67.4,11.1 67.4,22.2 57.8,16.7 	"/>
	<polygon id="XMLID_168_" class="st0" points="19.3,27.8 28.9,33.3 28.9,44.4 19.3,38.9 	"/>
	<polygon id="XMLID_157_" class="st1" points="48.1,44.4 19.3,27.8 48.1,11.1 77,27.8 	"/>
	<polygon id="XMLID_152_" class="st1" points="9.6,100 0,94.4 9.6,88.9 19.3,94.4 	"/>
	<polygon id="XMLID_153_" class="st1" points="86.7,55.6 77,50 86.7,44.4 96.3,50 	"/>
	<polygon id="XMLID_155_" class="st1" points="28.9,33.3 19.3,27.8 28.9,22.2 38.5,27.8 	"/>
	<polygon id="XMLID_156_" class="st1" points="67.4,11.1 57.8,5.6 67.4,0 77,5.6 	"/>
	<polygon id="XMLID_154_" class="st1" points="38.5,94.4 9.6,77.8 57.8,50 86.7,66.7 	"/>
	<polygon id="XMLID_158_" class="st1" points="38.5,61.1 9.6,44.4 19.3,38.9 48.1,55.6 	"/>
	<polygon id="XMLID_161_" class="st0" points="9.6,44.4 9.6,66.7 38.5,83.3 38.5,61.1 	"/>
	<polygon id="XMLID_159_" class="st1" points="77,38.9 48.1,22.2 57.8,16.7 86.7,33.3 	"/>
	<polygon id="XMLID_136_" class="st2" points="9.6,100 9.6,133.3 19.3,127.8 19.3,94.4 	"/>
	<polygon id="XMLID_150_" class="st2" points="86.7,111.1 86.7,66.7 38.5,94.4 38.5,138.9 	"/>
	<polygon id="XMLID_141_" class="st2" points="86.7,55.6 86.7,88.9 96.3,83.3 96.3,50 	"/>
	<polygon id="XMLID_142_" class="st2" points="38.5,83.3 86.7,55.6 86.7,33.3 77,38.9 77,27.8 48.1,44.4 48.1,55.6 38.5,61.1 	"/>
	<polygon id="XMLID_146_" class="st2" points="67.4,11.1 67.4,22.2 77,16.7 77,5.6 	"/>
	<polygon id="XMLID_147_" class="st2" points="38.5,27.8 38.5,38.9 28.9,44.4 28.9,33.3 	"/>
	<polygon id="XMLID_148_" class="st3" points="57.8,50 57.8,61.1 48.1,66.7 48.1,55.6 	"/>
	<polygon id="XMLID_149_" class="st3" points="77,38.9 77,50 67.4,55.6 67.4,44.4 	"/>
	<polygon id="XMLID_140_" class="st2" points="38.5,127.8 38.5,150 48.1,144.4 48.1,122.2 	"/>
	<polygon id="XMLID_151_" class="st2" points="57.8,116.7 57.8,138.9 67.4,133.3 67.4,111.1 	"/>
</g>
</svg>
