<?xml version="1.0" encoding="utf-8"?>
<!-- Generator: Adobe Illustrator 19.0.0, SVG Export Plug-In . SVG Version: 6.00 Build 0)  -->
<svg version="1.1" id="Layer_1" xmlns="http://www.w3.org/2000/svg" xmlns:xlink="http://www.w3.org/1999/xlink" x="0px" y="0px"
	 viewBox="0 0 120 150" style="enable-background:new 0 0 120 150;" xml:space="preserve">
<style type="text/css">
	.st0{fill:#469E3F;}
	.st1{fill:#31722E;}
	.st2{fill:#4BB847;}
	.st3{fill:#931821;}
	.st4{fill:#BF2640;}
	.st5{fill:#E02D4F;}
	.st6{fill:#FCD207;}
	.st7{fill:#FFFFFF;}
	.st8{fill:#347DC2;}
</style>
<g id="XMLID_120_">
	<polygon id="XMLID_129_" class="st0" points="30,80.8 0,63.5 10,57.7 40,75 	"/>
	<polygon id="XMLID_128_" class="st1" points="30,80.8 0,63.5 0.1,121.1 50,150 50,138.5 	"/>
	<polygon id="XMLID_127_" class="st2" points="70,115.4 70,126.9 60,132.7 60,144.2 50,150 50,138.5 40,144.2 40,132.7 30,138.5 
		30,80.8 40,75 40,86.5 50,80.8 50,103.8 60,98.1 60,109.6 70,103.9 	"/>
	<polygon id="XMLID_126_" class="st3" points="10,57.7 10,46.2 40,63.5 40,75 	"/>
	<polygon id="XMLID_125_" class="st4" points="20,40.4 50,57.7 40,63.5 10,46.2 	"/>
	<polygon id="XMLID_124_" class="st3" points="20,40.4 20,28.8 50,46.2 50,57.7 	"/>
	<polygon id="XMLID_123_" class="st4" points="70,0 120,28.8 70,57.7 20,28.8 	"/>
	<polygon id="XMLID_122_" class="st5" points="40,63.5 50,57.7 50,46.2 100,17.3 100,28.8 110,23.1 110,34.6 120,28.8 120,40.4 
		80,63.5 80,51.9 70,57.7 70,69.2 60,75 60,86.5 50,92.3 50,80.8 40,86.5 	"/>
	<polygon id="XMLID_121_" class="st6" points="90,69.2 90,57.7 120,40.4 120,86.5 110,92.3 110,103.8 100,109.6 100,121.2 60,144.2 
		60,132.7 70,126.9 70,115.4 80,109.6 80,98.1 90,92.3 90,80.8 100,75 100,63.5 	"/>
	<polygon id="XMLID_119_" class="st7" points="50,103.8 50,92.3 60,86.5 60,75 70,69.2 70,57.7 80,51.9 80,63.5 90,57.7 90,69.2 
		100,63.5 100,75 90,80.8 90,92.3 80,98.1 80,109.6 70,115.4 70,103.9 60,109.6 60,98.1 	"/>
	<polygon id="XMLID_118_" class="st8" points="60,98.1 60,86.5 70,80.8 70,69.2 80,63.5 80,75 90,69.2 90,80.8 80,86.5 80,98.1 
		70,103.8 70,92.3 	"/>
</g>
</svg>
