<?xml version="1.0" encoding="iso-8859-1"?>
<!-- Generator: Adobe Illustrator 19.0.0, SVG Export Plug-In . SVG Version: 6.00 Build 0)  -->
<svg version="1.1" id="Clouds" xmlns="http://www.w3.org/2000/svg" xmlns:xlink="http://www.w3.org/1999/xlink" x="0px" y="0px"
	 viewBox="0 0 1668 1000" style="enable-background:new 0 0 1668 1000;" xml:space="preserve">
<g id="XMLID_2_">
	<polygon id="XMLID_3_" style="fill:none;" points="782.562,330.602 782.562,330.665 802.555,319.131 802.501,319.099 	"/>
	<polygon id="XMLID_354_" style="fill:none;" points="872.601,313.287 872.601,313.35 882.59,307.587 882.535,307.556 	"/>
	<polygon id="XMLID_355_" style="fill:none;" points="2.074,502.973 0,501.777 0,501.817 2.074,503.013 	"/>
	<polygon id="XMLID_356_" style="fill:none;" points="852.592,313.287 852.592,313.35 862.581,307.587 862.527,307.556 	"/>
	<polygon id="XMLID_357_" style="fill:none;" points="812.575,324.831 812.575,324.894 842.572,307.587 842.518,307.556 	"/>
	<polygon id="XMLID_358_" style="fill:none;" points="1339.729,751.098 1349.723,745.332 1339.708,751.085 	"/>
	<polygon id="XMLID_359_" style="fill:none;" points="1349.628,733.812 1349.628,733.812 1349.614,745.27 1349.723,745.332 
		1349.723,733.789 1359.738,728.011 1359.71,727.995 	"/>
	<polygon id="XMLID_360_" style="fill:none;" points="1449.766,664.577 1459.709,670.314 1449.766,676.05 1449.766,676.072 
		1459.768,670.302 1449.766,664.531 	"/>
	<polygon id="XMLID_361_" style="fill:none;" points="612.419,474.935 612.419,486.478 602.415,492.25 602.415,515.337 
		602.469,515.368 602.484,515.359 602.484,492.273 612.489,486.501 612.489,474.957 622.478,469.195 622.423,469.163 	"/>
	<polygon id="XMLID_362_" style="fill:none;" points="22.083,514.465 22.167,514.416 22.083,514.367 	"/>
	<polygon id="XMLID_363_" style="fill:none;" points="122.126,502.921 122.203,502.877 122.126,502.832 	"/>
	<polygon id="XMLID_364_" style="fill:none;" points="834.307,654.938 834.311,654.94 844.258,649.202 844.234,649.188 	"/>
	<polygon id="XMLID_365_" style="fill:none;" points="142.134,491.378 142.162,491.362 142.134,491.346 	"/>
	<polygon id="XMLID_366_" style="fill:none;" points="752.479,347.958 752.479,359.501 742.475,365.273 742.475,376.816 
		722.466,388.36 722.466,399.903 702.458,411.446 702.458,422.99 682.449,434.533 682.449,446.077 652.436,463.392 652.436,474.935 
		642.502,480.666 642.502,480.729 652.506,474.957 652.506,463.414 682.519,446.099 682.519,434.556 702.528,423.012 
		702.528,411.469 722.536,399.925 722.536,388.382 742.545,376.839 742.545,365.295 752.549,359.524 752.549,347.98 
		762.553,342.209 762.603,330.636 772.542,324.902 772.488,324.871 762.484,330.643 762.484,342.186 732.471,324.871 
		762.484,342.186 	"/>
	<polygon id="XMLID_367_" style="fill:none;" points="502.371,573.054 492.367,578.825 492.374,578.829 502.384,573.054 
		502.384,561.518 502.371,561.51 	"/>
	<polygon id="XMLID_368_" style="fill:none;" points="522.38,538.424 522.38,549.967 512.376,555.739 512.382,555.742 
		522.393,549.967 522.393,538.424 532.391,532.656 532.384,532.652 	"/>
	<polygon id="XMLID_369_" style="fill:none;" points="824.295,683.784 820.263,686.132 824.307,683.799 824.307,672.256 
		827.539,670.391 824.295,672.24 	"/>
	<polygon id="XMLID_370_" style="fill:none;" points="804.288,706.891 804.298,706.886 804.298,695.43 804.288,695.436 	"/>
	<polygon id="XMLID_371_" style="fill:none;" points="162.143,491.378 162.2,491.345 162.143,491.313 	"/>
	<polygon id="XMLID_372_" style="fill:none;" points="834.311,666.484 804.288,649.221 834.261,666.513 	"/>
	<polygon id="XMLID_373_" style="fill:none;" points="1369.731,733.789 1369.742,733.783 1369.731,733.777 	"/>
	<polygon id="XMLID_374_" style="fill:none;" points="892.665,313.256 892.665,313.318 902.598,307.587 902.544,307.556 	"/>
	<polygon id="XMLID_375_" style="fill:none;" points="679.707,70.764 679.699,70.768 679.699,82.209 679.707,82.205 	"/>
	<polygon id="XMLID_376_" style="fill:none;" points="1171.377,257.993 1141.364,240.678 1171.377,257.993 	"/>
	<polygon id="XMLID_377_" style="fill:none;" points="144.851,824.505 144.851,824.505 154.856,830.277 154.872,830.268 
		144.332,824.206 	"/>
	<polygon id="XMLID_378_" style="fill:none;" points="1351.455,177.19 1351.46,177.186 1351.455,177.183 	"/>
	<polygon id="XMLID_379_" style="fill:none;" points="452.593,146.987 452.593,146.987 452.593,146.987 	"/>
	<polygon id="XMLID_380_" style="fill:none;" points="1659.919,531.744 1659.856,531.708 1659.856,531.78 	"/>
	<polygon id="XMLID_381_" style="fill:none;" points="1519.773,601.027 1519.796,601.04 1519.796,589.524 1519.773,589.537 	"/>
	<polygon id="XMLID_382_" style="fill:none;" points="1619.839,577.953 1619.961,577.883 1619.839,577.813 	"/>
	<polygon id="XMLID_383_" style="fill:none;" points="679.591,82.249 659.698,93.748 679.611,82.26 	"/>
	<rect id="XMLID_384_" x="1381.468" y="171.418" style="fill:none;" width="0" height="0"/>
	<polygon id="XMLID_385_" style="fill:none;" points="709.72,41.865 709.712,41.87 709.712,53.351 709.72,53.347 	"/>
	<polygon id="XMLID_386_" style="fill:none;" points="144.851,847.592 144.867,847.583 134.364,841.542 	"/>
	<polygon id="XMLID_387_" style="fill:none;" points="1609.79,572.174 1609.79,583.603 1609.835,583.63 1609.835,572.182 
		1599.396,566.178 	"/>
	<polygon id="XMLID_388_" style="fill:none;" points="719.724,59.118 719.636,59.169 719.724,59.22 	"/>
	<path id="XMLID_391_" style="fill:none;" d="M1639.885,635.666v0.014l-0.012-0.007l-0.04,0.023v-0.046l-9.964-5.749l-50.062,28.881
		v-0.036l-9.973-5.754l-0.031,0.018v11.543l-50.022,28.858v-11.543l-0.033,0.019l-0.014,11.496l-9.956-5.744l-40.018,23.087v11.543
		l-10.004,5.772v11.543l-30.013,17.315v-11.543l-0.053,0.031l0.029,0.017l-0.014,11.503l-9.991-5.764l-39.992,23.072v11.543
		l-30.013,17.315v-11.543l-0.08,0.046l-0.014,11.424l-9.893-5.708l-20.026,11.553v11.543l-60.011,34.604l-29.94-17.273
		l-0.059-11.545l20.009-11.543l29.971,17.291l0.028-0.016V820.4l-0.014,11.503l-29.94-17.273l-0.059-11.545l30.013,17.315v-0.036
		l-30.013-17.315l20.009-11.543l0.073,0.042l-0.059-11.493l-0.109-0.063l20.009-11.543l30.013,17.315l-19.976,11.525l0.062,0.036
		v-0.046l19.996-11.536l-0.023-0.013l0-0.009l-29.857-17.225l-0.059-11.545l29.952,17.28v-0.038l0.006-0.004l-29.958-17.284
		l20.009-11.543l29.952,17.28v-0.037l-29.893-17.246l-0.058-11.455l-0.15-0.087l10.057-5.777l-0.059-11.541l0,0l0,0v-0.003
		l0.003,0.002l20.006-11.542l10.065,5.807l20.042-11.601v-11.474l-0.094-0.055l20.009-11.543l30.013,17.315l-19.948,11.509
		l0.034,0.02l20.009-11.543v-0.025l-29.952-17.28v-11.54v-0.003l0.003,0.002l29.949-17.327l10.015,5.778v-11.485v-0.056l0.049,0.028
		l19.96-11.515l29.952,17.28l0.016-0.009l-29.978-17.295v-11.543l30.013,17.315v-0.04l0.04-0.023l-30.04-17.279l10.027-5.785
		l29.977,17.286v-0.044l-29.853-17.222V601.08v-0.02l0.017,0.01l29.828-17.341l-0.015-0.009v-11.499v-0.045l0.039,0.022
		l29.997-17.333l10.119,5.838l0.045-0.026l9.901,5.712l9.901-5.712l9.978,5.756l0.049-0.028l10.096,5.825l9.997-5.768l-0.107-0.062
		v-11.509v-0.034l0.03,0.017l9.997-5.768l10.032,5.785l0.077-0.045v-11.433l29.931,17.268v-0.045l0.006-0.004l-29.937-17.271
		l20.009-11.543l29.931,17.268v-0.017l-29.996-17.305l-0.017-23.073l0.12,0.069l9.924-5.725l9.894,5.705l0.118-0.068l0.03,0.017
		l-0.017-22.959L1668,501.94v-0.04l-28.092-16.207l20.009-11.543l8.084,4.664V0H862.213l-22.438,12.945l-10.004-5.772l-10.004,5.772
		l-10.004-5.772v11.543L779.75,36.031l-30.013-17.315V7.173l10.004-5.772V0H0v478.69l12.063,6.959l30.029-17.358l20.133,11.615
		l9.979-5.757l9.955,5.743l9.955-5.743l9.876,5.698l0.07-0.04v-11.532l30.013,17.315v11.455l0.058,0.033l-0.015-11.447l0.057-0.033
		l-10.722-6.186l-19.391-11.154l10.027-5.785l10.073,5.809l10.009-5.774l10.02,5.781l19.955-11.542l30.013,17.315v11.543
		l-70.045,40.427v11.543l-90.039,51.945v11.543L0,619.569V1000h759.741v-10.27l20.009-11.543v-11.543l20.009-11.543v-11.543
		l10.004-5.772l30.013,17.315v-11.543l20.009-11.543V920.47l20.009-11.543v-11.543l10.004-5.772v-11.543l10.004-5.772v-11.543
		l20.009-11.543v-11.543l30.013-17.315v-11.543l10.004-5.772l30.013,17.315l10.004,5.772l10.004-5.772l10.004,5.772l10.004-5.772
		l10.004,5.772l20.009-11.543l10.004,5.772l10.004-5.772l30.013,17.315v11.543l-50.022,28.858l-10.004-5.772l-20.009,11.543v11.543
		l-50.021,28.858l-10.004-5.772l-20.009,11.543v11.543L919.81,955.1v11.543L861.992,1000H1668V619.446L1639.885,635.666z
		 M629.685,76.433l20-11.559l0.002,0.001V53.453l30.02-17.422V24.488l10.004-5.772l10.014,5.778l9.994-5.778l30.013,17.315v0.006
		l9.999,5.769l0.005-0.003v11.543l-30.013,17.315v0.102L709.72,64.89l0,0l-10.004,5.772v11.543l-40.017,23.087l-30.013-17.315
		V76.433z M314.925,772.56l-10.004,5.772v11.543l-30.013,17.315l-10.004-5.772l-10.004,5.772v11.543l-30.013,17.315l-10.004-5.772
		l-40.017,23.087l-10.004-5.772l-20.009,11.543l-30.013-17.315v-11.51l-0.116-0.067l10.027-5.785l30.107,17.361l-30.013-17.315
		v-11.51l-0.116-0.067l10.027-5.785l30.107,17.361l-30.013-17.315v-11.492l-0.206-0.118l20.12-11.523l30.107,17.361l-30.013-17.315
		v-11.492l-0.206-0.118l30.125-17.295l30.107,17.361l-30.013-17.315v-11.518l-0.022-0.013l0.022-0.013v0h0l10.004-5.772
		l19.867,11.461l30.061-17.279l29.983,17.29l10.034-5.746l10.094,5.82l0.005-0.003v0.005l20.009,11.538l0,0V772.56z
		 M442.589,175.846l-20.009,11.543v11.543l-40.017,23.087l-10.004-5.772l-90.039,51.945l-10.004-5.772l-40.017,23.087l-10.004-5.772
		l-30.013,17.315l-10.004-5.772l-80.035,46.174l-30.013-17.315v-11.543l20.009-11.543v-11.543l20.009-11.543l10.004,5.772
		l10.004-5.772v-11.543l10.004-5.772v-11.543l10.004-5.772v-11.543l20.009-11.543v-11.543v0l0,0l20.009-11.543l30.013,17.315v11.543
		l10.004,5.772v-23.087v0h0l10.004-5.772v-23.087l20.009-11.543v-11.543l10.004-5.772v-11.543l10.004-5.772v-11.543l20.009-11.543
		l30.013,17.315v11.543l10.004,5.772l10.004-5.772l10.004,5.772l20.009-11.543l10.004,5.772l30.013-17.315l10.004,5.772
		l30.013-17.315l30.013,17.315h0v0l10.004,5.772v11.543l-50.022,28.858l-10.004-5.772V175.846z M642.432,515.4v11.481l-9.95-5.74
		l-19.993,11.534v-11.543l-0.07,0.04v11.481l-9.95-5.74l-9.989,5.763v-11.526l-0.07-0.04v11.543l-19.996-11.536v11.536
		l-10.004,5.772v11.543l-10.004,5.772v11.543l-20.009,11.543v-11.543l-0.013,0.007v11.536l-9.991-5.764v11.536l-20.009,11.543
		v-11.543l-0.013,0.007v11.536l-9.998-5.768l-9.998,5.768v-11.536l-0.013-0.007v11.543l-30.013-17.315v-11.543l20.009-11.543
		v-11.543l20.009-11.543v-11.543l20.009-11.543l10.004,5.772l20.009-11.543l30.013,17.315l-30,17.308v0.008l30.006-17.311
		l-10.011-5.775v-11.543l10.004-5.772v-23.087l10.004-5.772V457.62l20.009-11.543l20.009,11.543v-11.543l30.013-17.315v-11.543
		l20.009-11.543v-11.543l20.009-11.543v-11.543l20.009-11.543v-11.543l10.004-5.772v-11.543l10.004-5.772v-11.543l20.009-11.543
		l10.004,5.772l20.009-11.543l10.004,5.772l30.013-17.315l10.004,5.772l10.004-5.772l10.004,5.772l10.004-5.772l10.004,5.772
		l10.004-5.772l30.013,17.315l0,0l0.054,0.031l0.015-0.009l0,0.018l9.934,5.731l-9.879,5.7l0,0.063l9.949-5.74v11.543
		l-30.013,17.315v11.543l-10.004,5.772v11.543l-10.004,5.772l0.683,11.149l-10.687,6.166v11.543l-30.013,17.315v11.543
		l-60.026,34.63v-11.543l-0.07,0.04v11.481l-9.95-5.74l-29.997,17.306v-11.543l-0.07,0.04v11.481l-9.95-5.74l-9.989,5.763v11.543
		l-70.03,40.402v-11.543L642.432,515.4z M944.359,649.169l-30.013,17.315v11.543l-30.013,17.315v-0.044l-9.966-5.749l-20.047,11.566
		v11.543l-50.022,28.858v-11.543l-0.092,0.053l0.082,0.047v11.543l-10.086-5.819l-39.925,23.034v-11.543l-0.09,0.052l0.09,0.052
		v11.543l-10.094-5.823l-19.919,11.492v0.102l-30.013-17.315v-0.102v-11.442v-0.048l-0.183-0.106l30.196-17.162v-11.543
		l30.013,17.315v11.442l0,0v-11.543l0.013-0.008l-30.118-17.324l30.196-17.162l9.9,5.711l10.007-5.703l29.892,17.245l0.045-0.026
		l-29.937-17.271v-11.543l20.006-11.652v-11.543l10.007-5.704l-0.004-11.592l20.019-11.595l10.061,5.804l9.936-5.756l10.034,5.789
		v-11.569l9.988-5.76l10.005,5.771l0.001,0l10.071,5.809l10.072-5.733l9.937,5.733l10.072-5.733l29.878,17.237V649.169z
		 M1421.485,136.788l20.009-11.543v-11.543l30.013-17.315V84.843l20.009-11.543l30.013,17.315l10.004-5.772l30.013,17.315v11.543
		l-50.022,28.858l-10.004-5.772l-10.004,5.772v11.543l-10.004,5.772l-10.004-5.772l-20.009,11.543l-30.013-17.315V136.788z
		 M1211.394,304.167l-30.013,17.315l-10.004-5.772l-30.013,17.315l-30.013-17.315v-11.543l10.004-5.772v-11.543l10.004-5.772
		v-11.543l20.009-11.543l-10.004-5.772v-11.543l10.004-5.772V211.82l10.004-5.772v-11.543l20.009-11.543v-11.543l20.009-11.543
		v-11.543l20.009-11.543l10.004,5.772l10.004-5.772l10.004,5.772l10.004-5.772l10.004,5.772l20.009-11.543l30.013,17.315
		l10.004,5.772l20.009-11.543l20.009,11.543l10.004-5.772l10.004,5.772l10.004-5.772l30.013,17.315v11.543l-10.004,5.772v11.543
		l-30.013,17.315v11.543l-40.017,23.087l-10.004-5.772l-60.026,34.63l-10.004-5.772l-40.017,23.087l-10.004-5.772l-10.004,5.772
		V304.167z"/>
	<polygon id="XMLID_398_" style="fill:none;" points="849.78,983.958 869.789,972.415 849.78,983.931 	"/>
	<polygon id="XMLID_399_" style="fill:none;" points="1579.822,589.481 1579.822,589.497 1579.905,589.449 1579.891,589.441 	"/>
	<polygon id="XMLID_400_" style="fill:none;" points="1589.826,595.268 1589.909,595.221 1589.826,595.173 	"/>
	<polygon id="XMLID_401_" style="fill:none;" points="492.61,135.444 502.614,129.672 492.61,135.444 	"/>
	<polygon id="XMLID_402_" style="fill:#A3A3A3;" points="2.074,503.013 0,501.817 0,524.758 2.074,525.954 	"/>
	<polygon id="XMLID_403_" style="fill:#A3A3A3;" points="132.072,497.045 132.072,485.59 102.059,468.275 102.059,479.807 
		102.119,479.773 	"/>
	<polygon id="XMLID_404_" style="fill:#D6D6D6;" points="2.074,502.921 2.159,502.873 0,501.627 0,501.777 2.074,502.973 	"/>
	<polygon id="XMLID_405_" style="fill:#D6D6D6;" points="0,478.69 0,492.622 12.063,485.649 	"/>
	<polygon id="XMLID_406_" style="fill:#D6D6D6;" points="2.074,526.008 2.074,525.954 0,524.758 0,527.205 	"/>
	<polygon id="XMLID_407_" style="fill:#D6D6D6;" points="122.126,491.378 122.126,502.832 122.203,502.877 132.13,497.15 
		132.13,497.079 132.072,497.045 102.119,479.773 102.059,479.807 101.989,479.847 122.051,491.421 	"/>
	<polygon id="XMLID_408_" style="fill:#D6D6D6;" points="22.083,491.378 22.083,514.367 22.167,514.416 62.074,491.393 
		52.194,485.693 62.224,479.906 42.091,468.291 12.063,485.649 0,492.622 0,501.627 2.159,502.873 	"/>
	<polygon id="XMLID_409_" style="fill:#D6D6D6;" points="82.109,491.465 82.109,502.921 92.038,497.193 	"/>
	<polygon id="XMLID_410_" style="fill:#D6D6D6;" points="72.104,497.15 82.033,491.421 72.104,485.693 	"/>
	<polygon id="XMLID_411_" style="fill:#D6D6D6;" points="52.194,485.693 62.074,491.393 72.104,485.606 72.104,485.693 
		82.158,479.893 72.203,474.15 62.224,479.906 	"/>
	<polygon id="XMLID_412_" style="fill:#D6D6D6;" points="72.104,485.693 82.033,491.421 82.109,491.378 82.109,491.465 
		92.038,497.193 102.117,491.378 102.117,502.921 122.051,491.421 101.989,479.847 92.113,474.15 82.158,479.893 	"/>
	<polygon id="XMLID_413_" style="fill:#D6D6D6;" points="121.45,479.413 132.173,485.599 132.189,485.59 	"/>
	<polygon id="XMLID_414_" style="fill:#D6D6D6;" points="142.12,479.879 142.134,491.346 142.162,491.362 152.195,485.574 
		132.226,474.053 142.188,468.29 132.167,462.509 122.159,468.283 142.193,479.836 	"/>
	<polygon id="XMLID_415_" style="fill:#D6D6D6;" points="152.195,485.574 162.143,479.835 162.143,491.313 162.2,491.345 
		192.156,474.063 162.143,456.748 142.188,468.29 132.226,474.053 	"/>
	<polygon id="XMLID_416_" style="fill:#D6D6D6;" points="142.12,479.86 142.12,479.879 142.193,479.836 122.159,468.283 
		112.086,462.475 102.059,468.259 121.45,479.413 132.189,485.59 	"/>
	<polygon id="XMLID_417_" style="fill:#FFFFFF;" points="32.072,589.522 122.111,537.577 122.111,526.034 192.156,485.606 
		192.156,474.063 162.2,491.345 162.143,491.378 162.143,491.313 162.143,479.835 152.195,485.574 142.162,491.362 142.134,491.378 
		142.134,491.346 142.12,479.879 142.12,479.86 132.189,485.59 132.173,485.599 132.115,485.632 132.13,497.079 132.13,497.15 
		122.203,502.877 122.126,502.921 122.126,502.832 122.126,491.378 122.051,491.421 102.117,502.921 102.117,491.378 
		92.038,497.193 82.109,502.921 82.109,491.465 82.109,491.378 82.033,491.421 72.104,497.15 72.104,485.693 72.104,485.606 
		62.074,491.393 22.167,514.416 22.083,514.465 22.083,514.367 22.083,491.378 2.159,502.873 2.074,502.921 2.074,502.973 
		2.074,503.013 2.074,525.954 2.074,526.008 0,527.205 0,619.569 32.072,601.066 	"/>
	<polygon id="XMLID_418_" style="fill:#A3A3A3;" points="694.251,747.389 724.264,764.704 724.264,764.603 694.251,747.287 	"/>
	<polygon id="XMLID_419_" style="fill:#A3A3A3;" points="754.277,758.934 754.277,747.391 754.187,747.339 744.183,753.111 	"/>
	<polygon id="XMLID_420_" style="fill:#A3A3A3;" points="754.277,735.744 754.277,724.303 724.264,706.987 724.264,718.531 
		754.188,735.795 	"/>
	<polygon id="XMLID_421_" style="fill:#A3A3A3;" points="804.288,741.616 804.288,730.073 804.206,730.025 794.202,735.797 	"/>
	<polygon id="XMLID_422_" style="fill:#A3A3A3;" points="804.288,695.436 774.275,678.121 774.275,689.664 804.212,706.935 
		804.288,706.891 	"/>
	<polygon id="XMLID_423_" style="fill:#A3A3A3;" points="824.295,672.24 794.282,654.925 794.282,666.469 824.295,683.784 	"/>
	<polygon id="XMLID_424_" style="fill:#A3A3A3;" points="834.311,654.94 834.307,654.938 834.297,654.944 804.284,637.629 
		804.288,649.221 834.311,666.484 	"/>
	<polygon id="XMLID_425_" style="fill:#A3A3A3;" points="874.367,689.548 884.333,695.298 884.333,683.799 	"/>
	<polygon id="XMLID_426_" style="fill:#A3A3A3;" points="874.261,643.427 874.268,643.432 874.328,643.397 874.328,643.466 
		884.273,649.203 884.333,649.169 884.333,637.695 854.334,620.302 854.334,631.871 874.313,643.397 	"/>
	<polygon id="XMLID_427_" style="fill:#A3A3A3;" points="724.264,753.061 694.251,735.798 694.251,735.846 694.251,747.287 
		724.264,764.603 724.264,753.161 	"/>
	<polygon id="XMLID_428_" style="fill:#D6D6D6;" points="724.264,753.059 754.188,735.795 724.264,718.531 694.067,735.693 
		694.251,735.798 724.264,753.061 	"/>
	<polygon id="XMLID_429_" style="fill:#D6D6D6;" points="754.277,701.114 764.268,695.419 754.368,689.708 724.172,706.869 
		754.29,724.193 774.285,712.657 	"/>
	<polygon id="XMLID_430_" style="fill:#D6D6D6;" points="774.285,712.657 784.29,706.886 784.29,718.429 804.167,706.961 
		774.275,689.716 764.268,695.419 754.277,701.114 	"/>
	<polygon id="XMLID_431_" style="fill:#D6D6D6;" points="804.298,695.43 804.298,695.342 820.263,686.132 824.295,683.784 
		794.282,666.469 774.275,678.121 804.288,695.436 	"/>
	<polygon id="XMLID_432_" style="fill:#D6D6D6;" points="827.539,670.391 834.261,666.513 804.288,649.221 794.282,654.925 
		824.295,672.24 	"/>
	<polygon id="XMLID_433_" style="fill:#D6D6D6;" points="854.334,631.931 874.261,643.427 874.313,643.397 854.334,631.871 
		844.3,626.082 834.364,631.838 844.496,637.683 	"/>
	<polygon id="XMLID_434_" style="fill:#D6D6D6;" points="844.234,649.188 844.258,649.202 854.32,643.397 854.32,654.94 
		864.324,649.169 854.276,643.372 	"/>
	<polygon id="XMLID_435_" style="fill:#D6D6D6;" points="834.307,654.938 844.234,649.188 854.276,643.372 844.456,637.706 
		844.496,637.683 834.364,631.838 824.303,626.033 804.284,637.629 834.297,654.944 	"/>
	<polygon id="XMLID_436_" style="fill:#D6D6D6;" points="874.328,654.94 884.273,649.203 874.328,643.466 	"/>
	<polygon id="XMLID_437_" style="fill:#D6D6D6;" points="854.334,631.931 844.496,637.683 844.456,637.706 854.276,643.372 
		864.324,649.169 874.268,643.432 874.261,643.427 	"/>
	<polygon id="XMLID_438_" style="fill:#D6D6D6;" points="884.333,637.664 864.34,626.072 874.327,620.313 864.323,614.542 
		854.334,620.302 884.333,637.695 	"/>
	<polygon id="XMLID_439_" style="fill:#D6D6D6;" points="894.337,643.397 894.339,643.396 894.337,643.394 	"/>
	<polygon id="XMLID_440_" style="fill:#D6D6D6;" points="884.333,637.664 884.333,637.625 884.338,637.623 874.336,631.849 
		884.399,626.121 874.328,620.312 874.327,620.313 864.34,626.072 	"/>
	<polygon id="XMLID_441_" style="fill:#D6D6D6;" points="914.346,643.397 904.341,637.625 904.341,649.169 	"/>
	<polygon id="XMLID_442_" style="fill:#D6D6D6;" points="894.339,643.396 904.341,637.625 894.337,631.854 894.337,643.394 	"/>
	<polygon id="XMLID_443_" style="fill:#D6D6D6;" points="874.336,631.849 884.338,637.623 894.337,631.854 904.409,626.121 
		894.472,620.388 884.399,626.121 	"/>
	<polygon id="XMLID_444_" style="fill:#D6D6D6;" points="904.409,626.121 894.337,631.854 904.341,637.625 904.341,637.625 
		904.341,637.625 914.346,643.397 924.35,637.625 924.35,649.169 944.359,637.625 914.48,620.388 	"/>
	<polygon id="XMLID_445_" style="fill:#FFFFFF;" points="924.35,637.625 914.346,643.397 904.341,649.169 904.341,637.625 
		904.341,637.625 904.341,637.625 894.339,643.396 894.337,643.397 894.337,643.394 894.337,631.854 884.338,637.623 
		884.333,637.625 884.333,637.664 884.333,637.695 884.333,649.169 884.273,649.203 874.328,654.94 874.328,643.466 
		874.328,643.397 874.268,643.432 864.324,649.169 854.32,654.94 854.32,643.397 844.258,649.202 834.311,654.94 834.311,666.484 
		834.261,666.513 827.539,670.391 824.307,672.256 824.307,683.799 820.263,686.132 804.298,695.342 804.298,695.43 
		804.298,706.886 804.288,706.891 804.212,706.935 804.167,706.961 784.29,718.429 784.29,706.886 774.285,712.657 754.29,724.193 
		754.277,724.201 754.277,735.744 754.277,735.744 754.188,735.795 724.264,753.059 724.264,753.061 724.264,753.161 
		724.264,764.603 744.183,753.111 754.187,747.339 754.277,747.287 754.277,758.831 794.202,735.797 804.206,730.025 
		804.298,729.972 804.298,741.516 854.32,712.657 854.32,701.114 874.367,689.548 884.333,683.799 884.333,695.298 884.333,695.342 
		914.346,678.027 914.346,666.484 944.359,649.169 944.359,637.625 924.35,649.169 	"/>
	<polygon id="XMLID_446_" style="fill:#D6D6D6;" points="779.75,978.187 759.741,989.73 777.542,1000 801.966,1000 809.763,995.502 
			"/>
	<polygon id="XMLID_447_" style="fill:#D6D6D6;" points="829.771,972.415 822.474,968.205 799.758,955.1 779.75,966.643 
		809.763,983.958 	"/>
	<polygon id="XMLID_448_" style="fill:#D6D6D6;" points="839.776,955.1 809.763,937.785 799.758,943.557 829.759,960.865 	"/>
	<polygon id="XMLID_449_" style="fill:#D6D6D6;" points="829.771,972.415 829.771,972.415 822.474,968.205 	"/>
	<polygon id="XMLID_450_" style="fill:#D6D6D6;" points="829.771,960.872 839.776,955.1 829.759,960.865 	"/>
	<polygon id="XMLID_451_" style="fill:#D6D6D6;" points="839.776,978.187 849.78,972.415 849.78,983.931 869.789,972.415 
		839.776,955.1 	"/>
	<polygon id="XMLID_452_" style="fill:#D6D6D6;" points="889.797,949.328 859.784,932.013 839.776,943.557 869.789,960.872 	"/>
	<polygon id="XMLID_453_" style="fill:#D6D6D6;" points="909.806,926.242 879.793,908.926 859.784,920.47 889.797,937.785 	"/>
	<polygon id="XMLID_454_" style="fill:#D6D6D6;" points="919.81,908.926 889.797,891.611 879.793,897.383 909.806,914.698 	"/>
	<polygon id="XMLID_455_" style="fill:#D6D6D6;" points="929.814,891.611 899.801,874.296 889.797,880.068 919.81,897.383 	"/>
	<polygon id="XMLID_456_" style="fill:#D6D6D6;" points="949.823,868.525 919.81,851.21 899.801,862.753 929.814,880.068 	"/>
	<polygon id="XMLID_457_" style="fill:#D6D6D6;" points="979.836,839.666 949.823,822.351 919.81,839.666 949.823,856.981 	"/>
	<polygon id="XMLID_458_" style="fill:#D6D6D6;" points="1009.849,845.438 1009.849,845.438 1009.849,845.438 	"/>
	<polygon id="XMLID_459_" style="fill:#D6D6D6;" points="989.84,822.351 959.827,805.036 949.823,810.808 979.836,828.123 	"/>
	<polygon id="XMLID_460_" style="fill:#D6D6D6;" points="999.845,828.123 989.84,822.351 989.84,833.894 	"/>
	<polygon id="XMLID_461_" style="fill:#D6D6D6;" points="1019.853,851.21 1029.857,845.438 1019.853,839.666 	"/>
	<polygon id="XMLID_462_" style="fill:#D6D6D6;" points="999.845,828.123 999.845,839.666 1009.849,833.894 1019.853,828.123 
		1009.849,822.351 999.845,828.123 989.84,833.894 	"/>
	<polygon id="XMLID_463_" style="fill:#D6D6D6;" points="1009.849,845.438 1009.849,845.438 1019.853,839.666 1009.849,833.894 	"/>
	<polygon id="XMLID_464_" style="fill:#D6D6D6;" points="1039.862,851.21 1049.866,845.438 1039.862,839.666 	"/>
	<polygon id="XMLID_465_" style="fill:#D6D6D6;" points="1009.849,833.894 1019.853,839.666 1019.853,839.666 1019.853,839.666 
		1029.857,845.438 1039.862,839.666 1029.857,833.894 1039.862,828.123 1029.857,822.351 1019.853,828.123 	"/>
	<polygon id="XMLID_466_" style="fill:#D6D6D6;" points="1029.857,833.894 1039.862,839.666 1039.862,839.666 1039.862,839.666 
		1049.866,845.438 1059.87,839.666 1059.87,851.21 1079.879,839.666 1059.87,828.123 1069.875,822.351 1059.87,816.579 
		1039.862,828.123 	"/>
	<polygon id="XMLID_467_" style="fill:#D6D6D6;" points="1079.879,839.666 1089.883,833.894 1089.883,845.438 1109.892,833.894 
		1079.879,816.579 1069.875,822.351 1059.87,828.123 	"/>
	<polygon id="XMLID_468_" style="fill:#A3A3A3;" points="759.741,1000 777.542,1000 759.741,989.73 	"/>
	<polygon id="XMLID_469_" style="fill:#A3A3A3;" points="809.763,983.958 779.75,966.643 779.75,978.187 809.763,995.502 	"/>
	<polygon id="XMLID_470_" style="fill:#A3A3A3;" points="829.771,972.415 829.771,960.872 829.759,960.865 799.758,943.557 
		799.758,955.1 822.474,968.205 	"/>
	<polygon id="XMLID_471_" style="fill:#A3A3A3;" points="869.789,960.872 839.776,943.557 839.776,955.1 869.789,972.415 	"/>
	<polygon id="XMLID_472_" style="fill:#A3A3A3;" points="889.797,937.785 859.784,920.47 859.784,932.013 889.797,949.328 	"/>
	<polygon id="XMLID_473_" style="fill:#A3A3A3;" points="909.806,914.698 879.793,897.383 879.793,908.926 909.806,926.242 	"/>
	<polygon id="XMLID_474_" style="fill:#A3A3A3;" points="919.81,897.383 889.797,880.068 889.797,891.611 919.81,908.926 	"/>
	<polygon id="XMLID_475_" style="fill:#A3A3A3;" points="929.814,880.068 899.801,862.753 899.801,874.296 929.814,891.611 	"/>
	<polygon id="XMLID_476_" style="fill:#A3A3A3;" points="949.823,856.981 919.81,839.666 919.81,851.21 949.823,868.525 	"/>
	<polygon id="XMLID_477_" style="fill:#A3A3A3;" points="979.836,828.123 949.823,810.808 949.823,822.351 979.836,839.666 	"/>
	<polygon id="XMLID_478_" style="fill:#A3A3A3;" points="1049.866,868.525 1059.87,874.296 1059.87,862.753 	"/>
	<polygon id="XMLID_479_" style="fill:#A3A3A3;" points="969.832,914.698 979.836,920.47 979.836,908.926 	"/>
	<polygon id="XMLID_480_" style="fill:#FFFFFF;" points="919.81,955.1 949.823,937.785 949.823,926.242 969.832,914.698 
		979.836,908.926 979.836,920.47 1029.857,891.611 1029.857,880.068 1049.866,868.525 1059.87,862.753 1059.87,874.296 
		1109.892,845.438 1109.892,833.894 1089.883,845.438 1089.883,833.894 1079.879,839.666 1059.87,851.21 1059.87,839.666 
		1049.866,845.438 1039.862,851.21 1039.862,839.666 1039.862,839.666 1039.862,839.666 1029.857,845.438 1019.853,851.21 
		1019.853,839.666 1019.853,839.666 1019.853,839.666 1009.849,845.438 1009.849,845.438 1009.849,845.438 1009.849,833.894 
		999.845,839.666 999.845,828.123 989.84,833.894 989.84,822.351 979.836,828.123 979.836,839.666 949.823,856.981 949.823,868.525 
		929.814,880.068 929.814,891.611 919.81,897.383 919.81,908.926 909.806,914.698 909.806,926.242 889.797,937.785 889.797,949.328 
		869.789,960.872 869.789,972.415 849.78,983.958 849.78,983.931 849.78,972.415 839.776,978.187 839.776,955.1 829.771,960.872 
		829.771,972.415 829.771,972.415 809.763,983.958 809.763,995.502 801.966,1000 861.992,1000 919.81,966.643 	"/>
	<polygon id="XMLID_481_" style="fill:#A3A3A3;" points="72.429,308.595 72.429,320.138 102.442,337.453 102.442,325.91 	"/>
	<polygon id="XMLID_482_" style="fill:#A3A3A3;" points="122.451,302.823 92.438,285.508 92.438,297.051 122.451,314.366 	"/>
	<polygon id="XMLID_483_" style="fill:#A3A3A3;" points="162.468,279.736 132.455,262.421 132.455,273.965 162.468,291.28 	"/>
	<polygon id="XMLID_484_" style="fill:#A3A3A3;" points="162.468,268.193 172.472,273.965 172.472,262.421 142.459,245.106 
		142.459,256.65 162.468,268.193 	"/>
	<polygon id="XMLID_485_" style="fill:#A3A3A3;" points="182.477,291.28 192.481,297.051 192.481,285.508 	"/>
	
		<rect id="XMLID_486_" x="161.695" y="271.079" transform="matrix(-0.8662 -0.4997 0.4997 -0.8662 177.0666 589.5717)" style="fill:#A3A3A3;" width="11.55" height="0"/>
	<polygon id="XMLID_487_" style="fill:#A3A3A3;" points="222.494,279.736 232.498,285.508 232.498,273.965 	"/>
	<polygon id="XMLID_488_" style="fill:#A3A3A3;" points="182.476,245.106 152.464,227.791 152.464,239.334 182.476,256.65 	"/>
	<polygon id="XMLID_489_" style="fill:#A3A3A3;" points="172.472,204.704 172.472,204.704 172.472,204.704 	"/>
	<polygon id="XMLID_490_" style="fill:#A3A3A3;" points="202.485,222.019 172.472,204.704 172.472,216.248 202.485,233.563 	"/>
	<polygon id="XMLID_491_" style="fill:#A3A3A3;" points="272.515,262.421 282.52,268.193 282.52,256.65 	"/>
	<polygon id="XMLID_492_" style="fill:#A3A3A3;" points="242.502,233.563 242.502,233.563 262.511,245.106 262.511,222.019 
		232.498,204.704 232.498,227.791 242.502,233.563 	"/>
	<polygon id="XMLID_493_" style="fill:#A3A3A3;" points="232.498,204.704 232.498,204.704 232.498,204.704 	"/>
	<polygon id="XMLID_494_" style="fill:#A3A3A3;" points="272.515,193.161 242.502,175.846 242.502,198.933 272.515,216.248 	"/>
	<polygon id="XMLID_495_" style="fill:#A3A3A3;" points="292.524,170.074 262.511,152.759 262.511,164.302 292.524,181.618 	"/>
	<polygon id="XMLID_496_" style="fill:#A3A3A3;" points="302.528,152.759 272.515,135.444 272.515,146.987 302.528,164.302 	"/>
	<polygon id="XMLID_497_" style="fill:#A3A3A3;" points="312.532,135.444 282.52,118.129 282.52,129.672 312.532,146.987 	"/>
	<polygon id="XMLID_498_" style="fill:#A3A3A3;" points="372.558,216.248 382.563,222.019 382.563,210.476 	"/>
	<polygon id="XMLID_499_" style="fill:#A3A3A3;" points="452.593,158.531 442.589,164.302 452.593,170.074 	"/>
	<polygon id="XMLID_500_" style="fill:#D6D6D6;" points="122.451,314.366 92.438,297.051 72.429,308.595 102.442,325.91 	"/>
	<polygon id="XMLID_501_" style="fill:#D6D6D6;" points="132.455,297.051 112.446,285.508 122.451,279.736 112.446,273.965 
		92.438,285.508 122.451,302.823 	"/>
	<polygon id="XMLID_502_" style="fill:#D6D6D6;" points="362.554,164.302 372.558,158.531 352.55,146.987 362.554,141.216 
		352.55,135.444 342.545,141.216 362.554,152.759 	"/>
	<polygon id="XMLID_503_" style="fill:#D6D6D6;" points="372.558,158.531 382.563,152.759 382.563,164.302 402.571,152.759 
		382.563,141.216 392.567,135.444 382.563,129.672 362.554,141.216 352.55,146.987 	"/>
	<polygon id="XMLID_504_" style="fill:#D6D6D6;" points="402.571,152.759 412.576,146.987 412.576,158.531 442.589,141.216 
		422.58,129.672 432.584,123.901 422.58,118.129 392.567,135.444 382.563,141.216 	"/>
	<polygon id="XMLID_505_" style="fill:#D6D6D6;" points="502.614,129.672 492.61,123.901 492.61,135.444 	"/>
	<polygon id="XMLID_506_" style="fill:#D6D6D6;" points="442.589,141.216 452.593,135.444 452.593,146.987 452.593,146.987 
		492.61,123.901 462.597,106.586 432.584,123.901 422.58,129.672 	"/>
	<polygon id="XMLID_507_" style="fill:#D6D6D6;" points="132.455,297.051 142.459,291.28 142.459,302.823 162.468,291.28 
		132.455,273.965 122.451,279.736 112.446,285.508 	"/>
	<polygon id="XMLID_508_" style="fill:#D6D6D6;" points="172.472,273.965 162.468,268.193 142.459,256.65 132.455,262.421 
		162.468,279.736 	"/>
	<polygon id="XMLID_509_" style="fill:#D6D6D6;" points="182.476,256.65 152.464,239.334 142.459,245.106 172.472,262.421 	"/>
	<polygon id="XMLID_510_" style="fill:#D6D6D6;" points="202.485,233.563 172.472,216.248 152.464,227.791 182.476,245.106 	"/>
	<polygon id="XMLID_511_" style="fill:#D6D6D6;" points="222.494,210.476 192.481,193.161 172.472,204.704 172.472,204.704 
		202.485,222.019 	"/>
	<polygon id="XMLID_512_" style="fill:#D6D6D6;" points="232.498,227.791 232.498,239.334 242.502,233.563 232.498,227.791 
		222.494,222.019 222.494,233.563 	"/>
	<polygon id="XMLID_513_" style="fill:#D6D6D6;" points="242.502,256.65 262.511,245.106 242.502,233.563 	"/>
	<polygon id="XMLID_514_" style="fill:#D6D6D6;" points="272.515,216.248 242.502,198.933 232.498,204.704 232.498,204.704 
		262.511,222.019 	"/>
	<polygon id="XMLID_515_" style="fill:#D6D6D6;" points="292.524,181.618 262.511,164.302 242.502,175.846 272.515,193.161 	"/>
	<polygon id="XMLID_516_" style="fill:#D6D6D6;" points="302.528,164.302 272.515,146.987 262.511,152.759 292.524,170.074 	"/>
	<polygon id="XMLID_517_" style="fill:#D6D6D6;" points="312.532,146.987 282.52,129.672 272.515,135.444 302.528,152.759 	"/>
	<polygon id="XMLID_518_" style="fill:#D6D6D6;" points="312.532,135.444 302.528,129.672 312.532,123.901 322.537,129.672 
		332.541,123.901 302.528,106.586 282.52,118.129 312.532,135.444 	"/>
	<polygon id="XMLID_519_" style="fill:#D6D6D6;" points="302.528,129.672 312.532,135.444 322.537,129.672 312.532,123.901 	"/>
	<polygon id="XMLID_520_" style="fill:#D6D6D6;" points="332.541,146.987 342.545,141.216 342.545,164.302 362.554,152.759 
		342.545,141.216 332.541,135.444 	"/>
	<polygon id="XMLID_521_" style="fill:#FFFFFF;" points="452.593,170.074 502.614,141.216 502.614,129.672 492.61,135.444 
		492.61,135.444 492.61,123.901 492.61,123.901 492.61,123.901 452.593,146.987 452.593,146.987 452.593,146.987 452.593,135.444 
		442.589,141.216 412.576,158.531 412.576,146.987 402.571,152.759 382.563,164.302 382.563,152.759 372.558,158.531 
		362.554,164.302 362.554,152.759 342.545,164.302 342.545,141.216 332.541,146.987 332.541,135.444 332.541,123.901 
		322.537,129.672 312.532,135.444 312.532,135.444 312.532,146.987 302.528,152.759 302.528,164.302 292.524,170.074 
		292.524,181.618 272.515,193.161 272.515,216.248 262.511,222.019 262.511,245.106 242.502,256.65 242.502,233.563 
		242.502,233.563 242.502,233.563 232.498,239.334 232.498,227.791 222.494,233.563 222.494,222.019 222.494,210.476 
		202.485,222.019 202.485,233.563 182.476,245.106 182.476,256.65 172.472,262.421 172.472,273.965 172.472,273.965 
		162.468,279.736 162.468,291.28 142.459,302.823 142.459,291.28 132.455,297.051 122.451,302.823 122.451,314.366 102.442,325.91 
		102.442,337.453 182.477,291.28 192.481,285.508 192.481,297.051 222.494,279.736 232.498,273.965 232.498,285.508 
		272.515,262.421 282.52,256.65 282.52,268.193 372.558,216.248 382.563,210.476 382.563,222.019 422.58,198.933 422.58,187.389 
		442.589,175.846 442.589,164.302 452.593,158.531 	"/>
	<polygon id="XMLID_522_" style="fill:#A3A3A3;" points="472.359,578.825 452.35,567.282 452.35,578.825 482.363,596.14 
		482.363,584.597 472.359,578.825 	"/>
	<polygon id="XMLID_523_" style="fill:#A3A3A3;" points="502.371,561.51 472.359,544.195 472.359,555.739 502.371,573.054 	"/>
	<polygon id="XMLID_524_" style="fill:#A3A3A3;" points="492.374,578.829 492.367,578.825 482.363,584.597 472.359,578.825 
		472.359,578.825 482.363,584.597 482.376,584.605 482.376,584.597 	"/>
	<polygon id="XMLID_525_" style="fill:#A3A3A3;" points="502.371,596.14 502.371,584.605 492.374,590.372 	"/>
	<polygon id="XMLID_526_" style="fill:#A3A3A3;" points="522.393,573.061 532.384,578.825 532.384,567.289 522.393,573.054 	"/>
	<polygon id="XMLID_527_" style="fill:#A3A3A3;" points="502.371,561.51 502.384,561.518 502.384,561.51 512.382,555.742 
		512.376,555.739 	"/>
	<polygon id="XMLID_528_" style="fill:#A3A3A3;" points="522.38,538.424 492.367,521.108 492.367,532.652 522.38,549.967 	"/>
	<polygon id="XMLID_529_" style="fill:#A3A3A3;" points="582.406,515.337 562.397,503.793 562.397,515.337 572.408,521.112 
		572.415,521.109 572.415,521.116 592.41,532.652 592.41,521.109 582.406,515.337 	"/>
	<polygon id="XMLID_530_" style="fill:#A3A3A3;" points="582.406,503.793 602.415,515.337 602.415,492.25 572.402,474.935 
		572.402,498.022 582.406,503.793 	"/>
	<polygon id="XMLID_531_" style="fill:#A3A3A3;" points="612.419,532.652 612.419,521.171 602.469,526.912 	"/>
	<polygon id="XMLID_532_" style="fill:#A3A3A3;" points="602.469,515.368 602.415,515.337 582.406,503.793 582.406,503.793 
		602.415,515.337 592.41,521.108 582.406,515.337 582.406,515.337 592.41,521.109 592.48,521.149 592.48,521.131 	"/>
	<polygon id="XMLID_533_" style="fill:#A3A3A3;" points="642.432,526.88 642.432,515.4 632.482,521.14 	"/>
	<polygon id="XMLID_534_" style="fill:#A3A3A3;" points="612.419,474.935 582.406,457.62 582.406,469.163 612.419,486.478 	"/>
	<polygon id="XMLID_535_" style="fill:#A3A3A3;" points="632.427,463.392 632.482,463.423 632.497,463.414 632.497,463.432 
		642.486,469.195 642.502,469.186 642.502,469.204 652.436,474.935 652.436,463.392 622.423,446.077 622.423,457.62 
		632.427,463.392 	"/>
	<polygon id="XMLID_536_" style="fill:#A3A3A3;" points="682.449,434.533 652.436,417.218 652.436,428.761 682.449,446.077 	"/>
	<polygon id="XMLID_537_" style="fill:#A3A3A3;" points="732.471,474.935 732.471,463.454 722.521,469.195 	"/>
	<polygon id="XMLID_538_" style="fill:#A3A3A3;" points="702.458,411.446 672.445,394.131 672.445,405.675 702.458,422.99 	"/>
	<polygon id="XMLID_539_" style="fill:#A3A3A3;" points="722.466,388.36 692.453,371.045 692.453,382.588 722.466,399.903 	"/>
	<polygon id="XMLID_540_" style="fill:#A3A3A3;" points="742.475,365.273 712.462,347.958 712.462,359.501 742.475,376.816 	"/>
	<polygon id="XMLID_541_" style="fill:#A3A3A3;" points="752.479,347.958 722.466,330.643 722.466,342.186 752.479,359.501 	"/>
	<polygon id="XMLID_542_" style="fill:#A3A3A3;" points="762.484,330.643 732.471,313.328 732.471,324.871 762.484,342.186 	"/>
	<polygon id="XMLID_543_" style="fill:#A3A3A3;" points="772.488,463.392 772.488,451.911 762.538,457.651 	"/>
	<polygon id="XMLID_544_" style="fill:#D6D6D6;" points="482.363,584.597 492.367,578.825 502.371,573.054 472.359,555.739 
		452.35,567.282 472.359,578.825 	"/>
	<polygon id="XMLID_545_" style="fill:#D6D6D6;" points="512.376,555.739 522.38,549.967 492.367,532.652 472.359,544.195 
		502.371,561.51 	"/>
	<polygon id="XMLID_546_" style="fill:#D6D6D6;" points="532.384,532.652 512.376,521.108 522.38,515.337 512.376,509.565 
		492.367,521.108 522.38,538.424 	"/>
	<polygon id="XMLID_547_" style="fill:#D6D6D6;" points="532.384,532.652 532.391,532.656 542.402,526.88 542.402,538.416 
		572.402,521.109 542.389,503.793 522.38,515.337 512.376,521.108 	"/>
	<polygon id="XMLID_548_" style="fill:#D6D6D6;" points="622.423,469.163 612.419,463.392 622.423,457.62 632.427,463.392 
		632.427,463.392 622.423,457.62 602.415,446.077 582.406,457.62 612.419,474.935 	"/>
	<polygon id="XMLID_549_" style="fill:#D6D6D6;" points="612.419,486.478 582.406,469.163 572.402,474.935 602.415,492.25 	"/>
	<polygon id="XMLID_550_" style="fill:#D6D6D6;" points="592.41,521.108 602.415,515.337 582.406,503.793 572.402,498.022 
		562.397,503.793 582.406,515.337 	"/>
	<polygon id="XMLID_551_" style="fill:#D6D6D6;" points="632.497,474.957 642.486,469.195 632.497,463.432 	"/>
	<polygon id="XMLID_552_" style="fill:#D6D6D6;" points="642.502,469.204 642.502,480.666 652.436,474.935 	"/>
	<polygon id="XMLID_553_" style="fill:#D6D6D6;" points="622.423,457.62 612.419,463.392 622.423,469.163 622.478,469.195 
		632.482,463.423 632.427,463.392 	"/>
	<polygon id="XMLID_554_" style="fill:#D6D6D6;" points="682.449,446.077 652.436,428.761 622.423,446.077 652.436,463.392 	"/>
	<polygon id="XMLID_555_" style="fill:#D6D6D6;" points="702.458,422.99 672.445,405.675 652.436,417.218 682.449,434.533 	"/>
	<polygon id="XMLID_556_" style="fill:#D6D6D6;" points="722.466,399.903 692.453,382.588 672.445,394.131 702.458,411.446 	"/>
	<polygon id="XMLID_557_" style="fill:#D6D6D6;" points="742.475,376.816 712.462,359.501 692.453,371.045 722.466,388.36 	"/>
	<polygon id="XMLID_558_" style="fill:#D6D6D6;" points="772.488,324.871 752.479,313.328 762.484,307.556 752.479,301.784 
		732.471,313.328 762.484,330.643 	"/>
	<polygon id="XMLID_559_" style="fill:#D6D6D6;" points="752.479,359.501 722.466,342.186 712.462,347.958 742.475,365.273 	"/>
	<polygon id="XMLID_560_" style="fill:#D6D6D6;" points="762.484,342.186 732.471,324.871 722.466,330.643 752.479,347.958 	"/>
	<polygon id="XMLID_561_" style="fill:#D6D6D6;" points="772.488,324.871 772.542,324.902 782.562,319.122 782.562,330.602 
		802.501,319.099 782.492,307.556 792.496,301.784 782.492,296.013 762.484,307.556 752.479,313.328 	"/>
	<polygon id="XMLID_562_" style="fill:#D6D6D6;" points="802.501,319.099 802.555,319.131 812.575,313.35 812.575,324.831 
		842.518,307.556 822.509,296.013 832.514,290.241 822.509,284.469 792.496,301.784 782.492,307.556 	"/>
	<polygon id="XMLID_563_" style="fill:#D6D6D6;" points="852.592,301.825 852.592,313.287 862.527,307.556 	"/>
	<polygon id="XMLID_564_" style="fill:#D6D6D6;" points="842.518,307.556 842.572,307.587 852.577,301.816 842.518,296.013 
		852.522,290.241 842.518,284.469 832.514,290.241 822.509,296.013 	"/>
	<polygon id="XMLID_565_" style="fill:#D6D6D6;" points="872.601,301.825 872.601,313.287 882.535,307.556 	"/>
	<polygon id="XMLID_566_" style="fill:#D6D6D6;" points="842.518,296.013 852.577,301.816 852.592,301.807 852.592,301.825 
		862.527,307.556 862.581,307.587 872.585,301.816 862.527,296.013 872.531,290.241 862.527,284.469 852.522,290.241 	"/>
	<polygon id="XMLID_567_" style="fill:#D6D6D6;" points="892.609,301.825 892.665,313.256 902.544,307.556 	"/>
	<polygon id="XMLID_568_" style="fill:#D6D6D6;" points="862.527,296.013 872.585,301.816 872.601,301.807 872.601,301.825 
		882.535,307.556 882.59,307.587 892.594,301.816 882.535,296.013 892.54,290.241 912.548,301.784 912.548,301.784 882.535,284.469 
		872.531,290.241 	"/>
	<polygon id="XMLID_569_" style="fill:#D6D6D6;" points="922.552,307.556 912.618,301.825 912.673,313.256 	"/>
	<polygon id="XMLID_570_" style="fill:#D6D6D6;" points="882.535,296.013 892.594,301.816 892.609,301.807 892.609,301.825 
		902.544,307.556 902.598,307.587 912.603,301.816 912.548,301.784 892.54,290.241 	"/>
	<polygon id="XMLID_571_" style="fill:#FFFFFF;" points="572.408,521.112 542.402,538.424 542.402,538.416 542.402,526.88 
		532.391,532.656 522.393,538.424 522.393,549.967 512.382,555.742 502.384,561.51 502.384,561.518 502.384,573.054 
		492.374,578.829 482.376,584.597 482.376,584.605 482.376,596.141 492.374,590.372 502.371,584.605 502.384,584.597 
		502.384,596.141 522.393,584.597 522.393,573.061 522.393,573.054 532.384,567.289 532.397,567.282 532.397,578.825 
		552.406,567.282 552.406,555.739 562.41,549.967 562.41,538.424 572.415,532.652 572.415,521.116 572.415,521.109 	"/>
	<polygon id="XMLID_572_" style="fill:#FFFFFF;" points="712.532,486.501 712.532,474.957 722.521,469.195 732.471,463.454 
		732.54,463.414 732.54,474.957 762.538,457.651 772.488,451.911 772.558,451.871 772.558,463.414 832.584,428.784 832.584,417.241 
		862.596,399.925 862.596,388.382 873.284,382.216 872.601,371.067 882.605,365.295 882.605,353.752 892.609,347.98 
		892.609,336.437 922.622,319.122 922.622,307.578 912.674,313.318 912.673,313.256 912.618,301.825 912.618,301.807 
		912.603,301.816 902.598,307.587 892.665,313.318 892.665,313.256 892.609,301.825 892.609,301.807 892.594,301.816 
		882.59,307.587 872.601,313.35 872.601,313.287 872.601,301.825 872.601,301.807 872.585,301.816 862.581,307.587 852.592,313.35 
		852.592,313.287 852.592,301.825 852.592,301.807 852.577,301.816 842.572,307.587 812.575,324.894 812.575,324.831 
		812.575,313.35 802.555,319.131 782.562,330.665 782.562,330.602 782.562,319.122 772.542,324.902 762.603,330.636 
		762.553,342.209 752.549,347.98 752.549,359.524 742.545,365.295 742.545,376.839 722.536,388.382 722.536,399.925 
		702.528,411.469 702.528,423.012 682.519,434.556 682.519,446.099 652.506,463.414 652.506,474.957 642.502,480.729 
		642.502,480.666 642.502,469.204 642.502,469.186 642.486,469.195 632.497,474.957 632.497,463.432 632.497,463.414 
		632.482,463.423 622.478,469.195 612.489,474.957 612.489,486.501 602.484,492.273 602.484,515.359 602.469,515.368 
		592.48,521.131 592.48,521.149 592.48,532.674 602.469,526.912 612.419,521.171 612.489,521.131 612.489,532.674 632.482,521.14 
		642.432,515.4 642.502,515.359 642.502,526.903 	"/>
	<polygon id="XMLID_573_" style="fill:#A3A3A3;" points="134.364,841.542 114.839,830.311 114.839,841.82 144.851,859.135 
		144.851,847.592 	"/>
	
		<rect id="XMLID_574_" x="144.079" y="827.391" transform="matrix(-0.8662 -0.4997 0.4997 -0.8662 -133.8096 1618.951)" style="fill:#A3A3A3;" width="11.55" height="0"/>
	<polygon id="XMLID_575_" style="fill:#A3A3A3;" points="164.86,847.592 174.864,853.364 174.864,841.82 	"/>
	<polygon id="XMLID_576_" style="fill:#A3A3A3;" points="134.847,795.699 134.847,807.19 164.86,824.505 164.86,812.962 	"/>
	<polygon id="XMLID_577_" style="fill:#A3A3A3;" points="214.882,830.277 224.886,836.049 224.886,824.505 	"/>
	<polygon id="XMLID_578_" style="fill:#A3A3A3;" points="154.856,772.612 154.856,784.103 184.869,801.418 184.869,789.875 	"/>
	<polygon id="XMLID_579_" style="fill:#A3A3A3;" points="264.903,801.418 274.907,807.19 274.907,795.647 	"/>
	<polygon id="XMLID_580_" style="fill:#A3A3A3;" points="204.672,755.178 204.713,755.154 184.869,743.727 184.869,755.245 
		214.882,772.56 214.882,761.051 	"/>
	<polygon id="XMLID_581_" style="fill:#A3A3A3;" points="184.869,743.701 184.869,743.702 184.869,743.701 	"/>
	<polygon id="XMLID_582_" style="fill:#A3A3A3;" points="154.856,830.277 144.851,824.505 144.332,824.206 124.843,812.995 
		124.843,824.505 154.856,841.82 	"/>
	<polygon id="XMLID_583_" style="fill:#D6D6D6;" points="144.867,847.583 154.856,841.82 124.749,824.459 114.722,830.244 
		114.839,830.311 134.364,841.542 	"/>
	<polygon id="XMLID_584_" style="fill:#D6D6D6;" points="154.872,830.268 164.86,824.505 134.753,807.144 124.726,812.929 
		124.843,812.995 144.332,824.206 	"/>
	<polygon id="XMLID_585_" style="fill:#D6D6D6;" points="184.869,801.418 154.762,784.057 134.641,795.58 134.847,795.699 
		164.86,812.962 	"/>
	<polygon id="XMLID_586_" style="fill:#D6D6D6;" points="214.882,772.56 184.775,755.199 154.65,772.493 154.856,772.612 
		184.869,789.875 	"/>
	<polygon id="XMLID_587_" style="fill:#D6D6D6;" points="214.74,749.391 194.873,737.93 184.869,743.701 184.869,743.702 
		184.846,743.714 184.869,743.727 204.713,755.154 	"/>
	<polygon id="XMLID_588_" style="fill:#D6D6D6;" points="204.713,755.154 204.672,755.178 214.882,761.051 214.882,761.017 
		224.886,755.245 224.886,766.788 234.89,761.017 234.89,772.56 264.858,755.271 264.697,755.178 274.784,749.402 244.801,732.112 
		214.74,749.391 	"/>
	<polygon id="XMLID_589_" style="fill:#D6D6D6;" points="294.916,749.479 294.916,772.56 314.925,761.017 314.925,761.017 
		314.925,761.017 	"/>
	<polygon id="XMLID_590_" style="fill:#D6D6D6;" points="264.858,755.271 274.907,749.473 274.907,761.017 294.911,749.476 
		284.818,743.655 274.784,749.402 264.697,755.178 	"/>
	<polygon id="XMLID_591_" style="fill:#FFFFFF;" points="294.916,772.56 294.916,749.479 294.916,749.473 294.911,749.476 
		274.907,761.017 274.907,749.473 264.858,755.271 234.89,772.56 234.89,761.017 224.886,766.788 224.886,755.245 214.882,761.017 
		214.882,761.051 214.882,772.56 184.869,789.875 184.869,801.418 164.86,812.962 164.86,824.505 154.872,830.268 154.856,830.277 
		154.856,830.277 154.856,841.82 144.867,847.583 144.851,847.592 144.851,859.135 164.86,847.592 174.864,841.82 174.864,853.364 
		214.882,830.277 224.886,824.505 224.886,836.049 254.899,818.733 254.899,807.19 264.903,801.418 274.907,795.647 274.907,807.19 
		304.92,789.875 304.92,778.332 314.925,772.56 314.925,761.017 314.925,761.017 	"/>
	<polygon id="XMLID_592_" style="fill:#D6D6D6;" points="679.591,82.249 649.686,64.997 649.686,64.876 649.685,64.875 
		629.685,76.433 659.698,93.748 	"/>
	<polygon id="XMLID_593_" style="fill:#D6D6D6;" points="679.707,70.764 679.707,70.662 709.658,53.382 679.707,36.031 
		649.686,53.453 679.699,70.768 	"/>
	<polygon id="XMLID_594_" style="fill:#D6D6D6;" points="719.724,24.494 739.727,36.034 739.732,36.031 709.72,18.716 
		699.725,24.494 709.725,30.263 	"/>
	<polygon id="XMLID_595_" style="fill:#D6D6D6;" points="719.724,47.575 729.682,41.83 719.724,36.061 	"/>
	<polygon id="XMLID_596_" style="fill:#D6D6D6;" points="709.712,41.87 709.72,41.865 709.72,41.803 719.698,36.046 709.72,30.266 
		709.725,30.263 699.725,24.494 689.711,18.716 679.707,24.488 	"/>
	<polygon id="XMLID_597_" style="fill:#D6D6D6;" points="749.732,41.806 739.732,36.037 739.732,47.575 	"/>
	<polygon id="XMLID_598_" style="fill:#D6D6D6;" points="719.724,36.061 729.682,41.83 739.727,36.034 719.724,24.494 
		709.725,30.263 709.72,30.266 719.698,36.046 719.724,36.031 	"/>
	<polygon id="XMLID_599_" style="fill:#D6D6D6;" points="789.754,18.716 759.741,1.401 749.737,7.173 779.75,24.488 	"/>
	<polygon id="XMLID_600_" style="fill:#D6D6D6;" points="802.187,0 777.321,0 789.754,7.173 	"/>
	<polygon id="XMLID_601_" style="fill:#A3A3A3;" points="659.698,93.748 629.685,76.433 629.685,87.977 659.698,105.292 	"/>
	<polygon id="XMLID_602_" style="fill:#A3A3A3;" points="679.591,82.249 679.611,82.26 679.699,82.209 679.699,70.768 
		649.686,53.453 649.686,64.876 649.686,64.997 	"/>
	<polygon id="XMLID_603_" style="fill:#A3A3A3;" points="719.636,59.169 709.72,64.89 709.72,64.89 719.724,70.763 719.724,70.662 
		719.724,59.22 	"/>
	<polygon id="XMLID_604_" style="fill:#A3A3A3;" points="709.712,53.351 709.712,41.87 679.707,24.488 679.707,36.031 
		709.658,53.382 	"/>
	<polygon id="XMLID_605_" style="fill:#A3A3A3;" points="749.737,7.173 749.737,18.716 779.75,36.031 779.75,24.488 	"/>
	<polygon id="XMLID_606_" style="fill:#A3A3A3;" points="789.754,18.716 789.754,7.173 777.321,0 759.741,0 759.741,1.401 	"/>
	<polygon id="XMLID_607_" style="fill:#A3A3A3;" points="829.771,7.173 839.776,12.945 839.776,1.401 	"/>
	<polygon id="XMLID_608_" style="fill:#A3A3A3;" points="809.763,7.173 819.767,12.945 819.767,1.401 	"/>
	<polygon id="XMLID_609_" style="fill:#FFFFFF;" points="789.754,18.716 779.75,24.488 779.75,36.031 809.763,18.716 809.763,7.173 
		819.767,1.401 819.767,12.945 829.771,7.173 839.776,1.401 839.776,12.945 862.213,0 802.187,0 789.754,7.173 	"/>
	<polygon id="XMLID_610_" style="fill:#FFFFFF;" points="729.682,41.83 719.724,47.575 719.724,36.061 719.724,36.031 
		719.698,36.046 709.72,41.803 709.72,41.865 709.72,53.347 709.712,53.351 709.658,53.382 679.707,70.662 679.707,70.764 
		679.707,82.205 679.699,82.209 679.611,82.26 659.698,93.748 659.698,105.292 699.715,82.205 699.715,70.662 709.72,64.89 
		719.636,59.169 719.724,59.118 719.724,59.22 719.724,70.662 749.737,53.347 749.737,41.803 749.732,41.806 739.732,47.575 
		739.732,36.037 739.732,36.031 739.727,36.034 	"/>
	<polygon id="XMLID_611_" style="fill:#A3A3A3;" points="1229.685,826.177 1229.744,837.722 1259.684,854.995 1259.684,843.483 	"/>
	<polygon id="XMLID_612_" style="fill:#A3A3A3;" points="1249.739,814.63 1279.678,831.903 1279.693,820.4 1249.68,803.085 	"/>
	<polygon id="XMLID_613_" style="fill:#A3A3A3;" points="1299.701,797.324 1299.639,797.288 1299.607,797.307 1269.703,780.055 
		1269.761,791.548 1299.701,808.821 	"/>
	<polygon id="XMLID_614_" style="fill:#A3A3A3;" points="1319.71,774.238 1319.71,774.229 1289.758,756.949 1289.817,768.494 
		1319.674,785.719 1319.615,774.183 	"/>
	<polygon id="XMLID_615_" style="fill:#A3A3A3;" points="1339.729,751.098 1339.708,751.085 1339.63,751.13 1309.767,733.902 
		1309.825,745.357 1339.719,762.603 1339.719,751.104 	"/>
	<polygon id="XMLID_616_" style="fill:#A3A3A3;" points="1349.614,745.27 1349.628,733.812 1319.615,716.497 1319.674,728.038 
		1319.71,728.017 	"/>
	<polygon id="XMLID_617_" style="fill:#A3A3A3;" points="1319.615,716.494 1319.615,716.497 1319.618,716.495 	"/>
	<polygon id="XMLID_618_" style="fill:#A3A3A3;" points="1399.744,704.931 1399.71,704.911 1399.65,704.945 1369.731,687.685 
		1369.731,699.159 1399.744,716.474 	"/>
	<polygon id="XMLID_619_" style="fill:#A3A3A3;" points="1389.801,664.539 1389.801,664.542 1389.804,664.54 	"/>
	<polygon id="XMLID_620_" style="fill:#A3A3A3;" points="1419.772,681.833 1389.801,664.542 1389.801,676.082 1419.753,693.362 
		1419.753,681.844 	"/>
	<polygon id="XMLID_621_" style="fill:#A3A3A3;" points="1449.766,664.531 1459.768,670.302 1459.77,670.3 1459.77,658.815 
		1429.768,641.506 1429.768,652.992 1449.766,664.529 	"/>
	<polygon id="XMLID_622_" style="fill:#A3A3A3;" points="1429.768,641.45 1429.768,641.506 1429.817,641.478 	"/>
	<polygon id="XMLID_623_" style="fill:#A3A3A3;" points="1479.779,635.711 1449.766,618.396 1449.766,629.939 1479.744,647.234 
		1479.779,647.214 	"/>
	<polygon id="XMLID_624_" style="fill:#A3A3A3;" points="1489.828,618.329 1459.931,601.08 1459.931,612.604 1489.783,629.826 
		1489.783,618.355 	"/>
	<polygon id="XMLID_625_" style="fill:#A3A3A3;" points="1459.931,601.06 1459.931,601.08 1459.948,601.07 	"/>
	<polygon id="XMLID_626_" style="fill:#A3A3A3;" points="1519.773,601.027 1519.773,589.537 1489.76,572.222 1489.76,583.721 
		1489.776,583.729 1489.783,583.725 	"/>
	<polygon id="XMLID_627_" style="fill:#A3A3A3;" points="1489.76,572.177 1489.76,572.222 1489.799,572.2 	"/>
	<polygon id="XMLID_628_" style="fill:#A3A3A3;" points="1609.79,583.603 1609.79,572.174 1599.396,566.178 1579.777,554.893 
		1579.777,566.402 1579.884,566.464 1579.982,566.407 	"/>
	<polygon id="XMLID_637_" style="fill:#A3A3A3;" points="1579.777,554.859 1579.777,554.893 1579.806,554.876 	"/>
	<polygon id="XMLID_638_" style="fill:#A3A3A3;" points="1629.844,572.059 1629.844,560.683 1599.913,543.416 1599.913,554.848 
		1599.955,554.824 	"/>
	<polygon id="XMLID_639_" style="fill:#A3A3A3;" points="1619.856,508.821 1619.959,508.762 1619.839,508.693 1619.856,531.766 
		1649.852,549.071 1649.852,526.075 	"/>
	<polygon id="XMLID_640_" style="fill:#A3A3A3;" points="1639.925,508.691 1668,524.881 1668,501.94 1639.908,485.733 	"/>
	<polygon id="XMLID_641_" style="fill:#A3A3A3;" points="1349.614,803.001 1349.628,791.578 1339.721,797.293 	"/>
	<polygon id="XMLID_642_" style="fill:#A3A3A3;" points="1319.71,785.734 1319.71,774.238 1319.615,774.183 1319.674,785.719 
		1319.674,785.728 1319.697,785.742 	"/>
	<polygon id="XMLID_643_" style="fill:#A3A3A3;" points="1429.704,756.908 1429.718,745.405 1429.689,745.389 1419.713,751.144 	"/>
	<polygon id="XMLID_644_" style="fill:#A3A3A3;" points="1519.734,693.385 1519.748,681.888 1509.778,687.641 	"/>
	<polygon id="XMLID_645_" style="fill:#A3A3A3;" points="1569.834,652.993 1579.807,658.747 1579.807,647.239 	"/>
	<polygon id="XMLID_646_" style="fill:#A3A3A3;" points="1639.885,635.68 1639.885,635.666 1639.873,635.673 	"/>
	<polygon id="XMLID_647_" style="fill:#A3A3A3;" points="1629.869,629.901 1639.833,635.65 1639.833,624.153 	"/>
	<polygon id="XMLID_648_" style="fill:#D6D6D6;" points="1299.701,808.821 1269.761,791.548 1269.688,791.506 1249.68,803.049 
		1279.693,820.364 	"/>
	<polygon id="XMLID_649_" style="fill:#D6D6D6;" points="1259.684,843.451 1279.665,831.924 1249.694,814.633 1229.685,826.177 
		1259.684,843.483 	"/>
	<polygon id="XMLID_650_" style="fill:#D6D6D6;" points="1299.639,797.288 1319.615,785.763 1289.602,768.448 1269.594,779.992 
		1269.703,780.055 1299.607,797.307 	"/>
	<polygon id="XMLID_651_" style="fill:#D6D6D6;" points="1339.719,762.64 1309.766,745.36 1289.758,756.903 1319.716,774.187 
		1339.719,762.647 	"/>
	<polygon id="XMLID_652_" style="fill:#D6D6D6;" points="1349.628,733.812 1359.71,727.995 1339.779,716.497 1349.689,710.76 
		1339.624,704.953 1319.618,716.495 1319.615,716.497 1319.615,716.497 1319.615,716.497 1349.628,733.812 	"/>
	<polygon id="XMLID_653_" style="fill:#D6D6D6;" points="1339.708,751.085 1349.723,745.332 1349.614,745.27 1319.71,728.017 
		1319.674,728.038 1309.617,733.815 1309.767,733.902 1339.63,751.13 	"/>
	<polygon id="XMLID_654_" style="fill:#D6D6D6;" points="1359.71,727.995 1359.738,728.011 1369.731,722.246 1369.731,733.777 
		1369.742,733.783 1399.744,716.474 1369.731,699.159 1349.689,710.76 1339.779,716.497 	"/>
	<polygon id="XMLID_655_" style="fill:#D6D6D6;" points="1399.71,704.911 1419.658,693.402 1389.646,676.087 1369.637,687.63 
		1369.731,687.685 1399.65,704.945 	"/>
	<polygon id="XMLID_656_" style="fill:#D6D6D6;" points="1429.715,676.096 1409.687,664.542 1429.696,652.999 1449.724,664.553 
		1449.766,664.529 1429.768,652.992 1419.753,647.214 1389.804,664.54 1389.801,664.542 1419.772,681.833 	"/>
	<polygon id="XMLID_657_" style="fill:#D6D6D6;" points="1449.766,664.577 1449.766,676.05 1459.709,670.314 	"/>
	<polygon id="XMLID_658_" style="fill:#D6D6D6;" points="1409.687,664.542 1429.715,676.096 1449.724,664.553 1429.696,652.999 	"/>
	<polygon id="XMLID_659_" style="fill:#D6D6D6;" points="1459.77,658.757 1479.728,647.243 1449.777,629.963 1429.817,641.478 
		1429.768,641.506 1459.77,658.815 	"/>
	<polygon id="XMLID_660_" style="fill:#D6D6D6;" points="1519.796,601.04 1519.773,601.027 1489.783,583.725 1489.776,583.729 
		1459.948,601.07 1459.931,601.08 1489.828,618.329 	"/>
	<polygon id="XMLID_661_" style="fill:#D6D6D6;" points="1519.796,589.524 1519.796,589.497 1529.846,583.699 1509.952,572.222 
		1529.916,560.705 1519.796,554.867 1489.799,572.2 1489.76,572.222 1519.773,589.537 	"/>
	<polygon id="XMLID_662_" style="fill:#D6D6D6;" points="1529.846,583.699 1539.747,577.987 1529.755,572.222 1539.862,566.391 
		1529.961,560.679 1529.916,560.705 1509.952,572.222 	"/>
	<polygon id="XMLID_663_" style="fill:#D6D6D6;" points="1529.755,572.222 1539.747,577.987 1539.796,577.958 1539.782,577.95 
		1559.742,566.435 1549.764,560.679 1539.862,566.391 	"/>
	<polygon id="XMLID_664_" style="fill:#D6D6D6;" points="1579.822,589.401 1579.822,589.481 1579.891,589.441 	"/>
	<polygon id="XMLID_665_" style="fill:#D6D6D6;" points="1539.782,577.95 1539.796,577.958 1549.809,572.182 1549.809,583.725 
		1559.813,577.953 1559.813,589.497 1569.9,583.677 1559.974,577.95 1569.886,572.232 1559.79,566.407 1559.742,566.435 	"/>
	<polygon id="XMLID_666_" style="fill:#D6D6D6;" points="1559.974,577.95 1569.9,583.677 1579.822,577.953 1579.822,589.401 
		1579.891,589.441 1579.905,589.449 1589.826,583.725 1589.826,595.173 1589.909,595.221 1609.835,583.725 1609.835,583.63 
		1609.79,583.603 1579.982,566.407 1579.884,566.464 1569.886,572.232 	"/>
	<polygon id="XMLID_667_" style="fill:#D6D6D6;" points="1649.852,549.088 1619.921,531.82 1599.913,543.364 1629.85,560.635 
		1649.852,549.095 	"/>
	<polygon id="XMLID_668_" style="fill:#D6D6D6;" points="1639.908,485.693 1668,501.9 1668,501.75 1659.99,497.129 1668,492.499 
		1668,478.813 1659.916,474.15 	"/>
	<polygon id="XMLID_669_" style="fill:#D6D6D6;" points="1609.835,572.182 1609.835,572.182 1609.942,572.12 1589.929,560.609 
		1599.835,554.893 1589.803,549.108 1579.806,554.876 1579.777,554.893 1599.396,566.178 	"/>
	<polygon id="XMLID_670_" style="fill:#D6D6D6;" points="1649.852,526.075 1649.852,526.008 1649.9,525.981 1629.868,514.459 
		1639.776,508.742 1629.883,503.037 1619.959,508.762 1619.856,508.821 	"/>
	<polygon id="XMLID_671_" style="fill:#D6D6D6;" points="1639.894,508.674 1639.776,508.742 1629.868,514.459 1649.9,525.981 
		1659.856,520.237 1659.856,531.708 1659.919,531.744 1668,527.082 1668,524.881 1639.925,508.691 	"/>
	<polygon id="XMLID_672_" style="fill:#D6D6D6;" points="1609.942,572.12 1619.839,566.41 1619.839,577.813 1619.961,577.883 
		1629.844,572.182 1629.844,572.059 1599.955,554.824 1599.913,554.848 1599.835,554.893 1589.929,560.609 	"/>
	<polygon id="XMLID_673_" style="fill:#D6D6D6;" points="1489.783,629.87 1459.806,612.584 1449.779,618.368 1479.819,635.647 
		1489.783,629.899 	"/>
	<polygon id="XMLID_674_" style="fill:#D6D6D6;" points="1668,501.75 1668,492.499 1659.99,497.129 	"/>
	<polygon id="XMLID_675_" style="fill:#FFFFFF;" points="1659.856,531.78 1659.856,531.708 1659.856,520.237 1649.9,525.981 
		1649.852,526.008 1649.852,526.075 1649.852,549.071 1649.852,549.088 1649.852,549.095 1629.85,560.635 1629.844,560.638 
		1629.844,560.683 1629.844,572.059 1629.844,572.182 1619.961,577.883 1619.839,577.953 1619.839,577.813 1619.839,566.41 
		1609.942,572.12 1609.835,572.182 1609.835,572.182 1609.835,583.63 1609.835,583.725 1589.909,595.221 1589.826,595.268 
		1589.826,595.173 1589.826,583.725 1579.905,589.449 1579.822,589.497 1579.822,589.481 1579.822,589.401 1579.822,577.953 
		1569.9,583.677 1559.813,589.497 1559.813,577.953 1549.809,583.725 1549.809,572.182 1539.796,577.958 1539.747,577.987 
		1529.846,583.699 1519.796,589.497 1519.796,589.524 1519.796,601.04 1489.828,618.329 1489.783,618.355 1489.783,629.826 
		1489.783,629.87 1489.783,629.899 1479.819,635.647 1479.779,635.67 1479.779,635.711 1479.779,647.214 1479.744,647.234 
		1479.728,647.243 1459.77,658.757 1459.77,658.815 1459.77,670.3 1459.768,670.302 1449.766,676.072 1449.766,676.05 
		1449.766,664.577 1449.766,664.531 1449.766,664.529 1449.724,664.553 1429.715,676.096 1419.772,681.833 1419.753,681.844 
		1419.753,693.362 1419.753,693.387 1399.744,704.931 1399.744,716.474 1369.742,733.783 1369.731,733.789 1369.731,733.777 
		1369.731,722.246 1359.738,728.011 1349.723,733.789 1349.723,745.332 1339.729,751.098 1339.719,751.104 1339.719,762.603 
		1339.719,762.64 1339.719,762.647 1319.716,774.187 1319.71,774.191 1319.71,774.229 1319.71,774.238 1319.71,785.734 
		1319.697,785.742 1299.701,797.278 1299.701,797.324 1299.701,808.821 1279.693,820.364 1279.693,820.4 1279.693,831.908 
		1279.665,831.924 1259.684,843.451 1259.684,843.483 1259.684,854.995 1319.695,820.39 1319.695,808.847 1339.721,797.293 
		1349.628,791.578 1349.708,791.532 1349.708,803.075 1379.721,785.76 1379.721,774.216 1419.713,751.144 1429.689,745.389 
		1429.742,745.358 1429.742,756.901 1459.755,739.586 1459.755,728.043 1469.76,722.271 1469.76,710.728 1509.778,687.641 
		1519.748,681.888 1519.781,681.869 1519.781,693.413 1569.803,664.554 1569.803,653.011 1569.834,652.993 1579.807,647.239 
		1579.807,658.747 1579.807,658.783 1629.869,629.901 1639.833,624.153 1639.833,635.65 1639.833,635.696 1639.873,635.673 
		1639.885,635.666 1668,619.446 1668,527.082 1659.919,531.744 	"/>
	<polygon id="XMLID_676_" style="fill:#A3A3A3;" points="1451.498,154.103 1421.485,136.788 1421.485,148.331 1451.498,165.646 	"/>
	<polygon id="XMLID_677_" style="fill:#A3A3A3;" points="1451.498,131.016 1471.507,142.56 1471.507,131.016 1441.494,113.701 
		1441.494,125.244 1451.498,131.016 	"/>
	<polygon id="XMLID_678_" style="fill:#A3A3A3;" points="1471.506,154.103 1481.511,159.875 1481.511,148.331 	"/>
	<rect id="XMLID_679_" x="1461.502" y="125.238" style="fill:#A3A3A3;" width="0" height="23.1"/>
	<polygon id="XMLID_680_" style="fill:#A3A3A3;" points="1501.519,136.788 1511.524,142.56 1511.524,131.016 	"/>
	<polygon id="XMLID_681_" style="fill:#A3A3A3;" points="1501.52,102.158 1471.507,84.843 1471.507,96.386 1501.52,113.701 	"/>
	<polygon id="XMLID_687_" style="fill:#A3A3A3;" points="1111.351,304.167 1111.351,315.71 1141.364,333.025 1141.364,321.482 	"/>
	<polygon id="XMLID_688_" style="fill:#A3A3A3;" points="1151.369,304.167 1121.356,286.852 1121.356,298.395 1151.369,315.71 	"/>
	<polygon id="XMLID_689_" style="fill:#A3A3A3;" points="1151.369,292.623 1161.373,298.395 1161.373,286.852 1131.36,269.537 
		1131.36,281.08 1151.369,292.623 	"/>
	<polygon id="XMLID_690_" style="fill:#A3A3A3;" points="1171.377,315.71 1181.381,321.482 1181.381,309.939 	"/>
	
		<rect id="XMLID_691_" x="1150.596" y="295.509" transform="matrix(-0.8662 -0.4997 0.4997 -0.8662 2010.3315 1129.3378)" style="fill:#A3A3A3;" width="11.55" height="0"/>
	<polygon id="XMLID_692_" style="fill:#A3A3A3;" points="1221.399,286.852 1231.403,292.623 1231.403,281.08 	"/>
	<polygon id="XMLID_693_" style="fill:#A3A3A3;" points="1181.381,263.765 1171.377,269.537 1181.381,275.308 	"/>
	<polygon id="XMLID_694_" style="fill:#A3A3A3;" points="1171.377,269.537 1171.377,257.993 1141.364,240.678 1141.364,252.222 
		1151.369,257.993 1151.369,257.993 	"/>
	<polygon id="XMLID_695_" style="fill:#A3A3A3;" points="1181.381,229.135 1151.369,211.82 1151.369,234.907 1181.381,252.222 	"/>
	<polygon id="XMLID_696_" style="fill:#A3A3A3;" points="1191.386,211.82 1161.373,194.505 1161.373,206.048 1191.386,223.363 	"/>
	<polygon id="XMLID_697_" style="fill:#A3A3A3;" points="1211.394,188.733 1181.381,171.418 1181.381,182.961 1211.394,200.276 	"/>
	<polygon id="XMLID_698_" style="fill:#A3A3A3;" points="1231.403,165.646 1201.39,148.331 1201.39,159.875 1231.403,177.19 	"/>
	<polygon id="XMLID_699_" style="fill:#A3A3A3;" points="1341.45,240.678 1351.455,246.45 1351.455,234.907 	"/>
	<polygon id="XMLID_700_" style="fill:#A3A3A3;" points="1271.42,269.537 1281.425,275.308 1281.425,263.765 	"/>
	<polygon id="XMLID_701_" style="fill:#D6D6D6;" points="1151.369,315.71 1121.356,298.395 1111.351,304.167 1141.364,321.482 	"/>
	<polygon id="XMLID_702_" style="fill:#D6D6D6;" points="1161.373,298.395 1151.369,292.623 1131.36,281.08 1121.356,286.852 
		1151.369,304.167 	"/>
	<polygon id="XMLID_703_" style="fill:#D6D6D6;" points="1181.381,275.308 1171.377,269.537 1171.377,269.537 1171.377,269.537 
		1151.369,257.993 1151.369,257.993 1131.36,269.537 1161.373,286.852 	"/>
	<polygon id="XMLID_704_" style="fill:#D6D6D6;" points="1181.381,252.222 1151.369,234.907 1141.364,240.678 1171.377,257.993 	"/>
	<polygon id="XMLID_705_" style="fill:#D6D6D6;" points="1191.386,223.363 1161.373,206.048 1151.369,211.82 1181.381,229.135 	"/>
	<polygon id="XMLID_706_" style="fill:#D6D6D6;" points="1211.394,200.276 1181.381,182.961 1161.373,194.505 1191.386,211.82 	"/>
	<polygon id="XMLID_707_" style="fill:#D6D6D6;" points="1231.403,177.19 1201.39,159.875 1181.381,171.418 1211.394,188.733 	"/>
	<polygon id="XMLID_708_" style="fill:#D6D6D6;" points="1241.407,159.875 1221.399,148.331 1231.403,142.56 1221.399,136.788 
		1201.39,148.331 1231.403,165.646 	"/>
	<polygon id="XMLID_709_" style="fill:#D6D6D6;" points="1241.407,159.875 1251.412,154.103 1251.412,165.646 1261.416,159.875 
		1241.407,148.331 1251.412,142.56 1241.407,136.788 1231.403,142.56 1221.399,148.331 	"/>
	<polygon id="XMLID_710_" style="fill:#D6D6D6;" points="1261.416,159.875 1271.42,154.103 1271.42,165.646 1281.425,159.875 
		1261.416,148.331 1271.42,142.56 1261.416,136.788 1251.412,142.56 1241.407,148.331 	"/>
	<polygon id="XMLID_711_" style="fill:#D6D6D6;" points="1331.446,154.103 1321.442,148.331 1321.464,159.862 	"/>
	<polygon id="XMLID_712_" style="fill:#D6D6D6;" points="1331.446,177.19 1341.461,171.412 1331.446,165.627 	"/>
	<polygon id="XMLID_713_" style="fill:#D6D6D6;" points="1281.425,159.875 1291.429,154.103 1291.429,165.646 1321.442,148.331 
		1291.429,131.016 1271.42,142.56 1261.416,148.331 	"/>
	<polygon id="XMLID_714_" style="fill:#D6D6D6;" points="1381.468,171.418 1381.468,171.418 1381.468,171.418 	"/>
	<polygon id="XMLID_715_" style="fill:#D6D6D6;" points="1331.446,154.103 1331.446,165.627 1341.461,171.412 1351.455,165.646 
		1351.455,177.183 1351.46,177.186 1371.463,165.646 1361.459,159.875 1371.463,154.103 1351.455,142.56 1331.446,154.103 
		1321.464,159.862 	"/>
	<polygon id="XMLID_716_" style="fill:#D6D6D6;" points="1391.472,177.19 1401.476,171.418 1391.472,165.646 	"/>
	<polygon id="XMLID_717_" style="fill:#D6D6D6;" points="1381.468,159.875 1381.468,171.418 1381.468,171.418 1381.468,171.418 
		1391.472,165.646 	"/>
	<polygon id="XMLID_718_" style="fill:#D6D6D6;" points="1371.463,165.646 1381.468,159.875 1391.472,154.103 1381.468,148.331 
		1371.463,154.103 1361.459,159.875 	"/>
	<polygon id="XMLID_719_" style="fill:#D6D6D6;" points="1381.468,159.875 1391.472,165.646 1391.472,165.646 1391.472,165.646 
		1401.476,171.418 1411.481,165.646 1411.481,177.19 1431.489,165.646 1401.476,148.331 1391.472,154.103 	"/>
	<polygon id="XMLID_720_" style="fill:#D6D6D6;" points="1471.507,142.56 1451.498,131.016 1441.494,125.244 1421.485,136.788 
		1451.498,154.103 	"/>
	<polygon id="XMLID_721_" style="fill:#D6D6D6;" points="1531.532,107.929 1521.528,102.158 1521.528,113.701 	"/>
	<polygon id="XMLID_722_" style="fill:#D6D6D6;" points="1501.52,102.158 1511.524,96.386 1511.524,96.386 1521.528,90.614 
		1491.515,73.299 1471.507,84.843 1501.52,102.158 	"/>
	<polygon id="XMLID_723_" style="fill:#D6D6D6;" points="1501.52,113.701 1471.507,96.386 1441.494,113.701 1471.507,131.016 	"/>
	<polygon id="XMLID_724_" style="fill:#D6D6D6;" points="1511.524,96.386 1521.528,90.614 1521.528,102.158 1531.532,107.929 
		1541.537,102.158 1541.537,113.701 1561.545,102.158 1531.532,84.843 1521.528,90.614 1511.524,96.386 	"/>
	<polygon id="XMLID_725_" style="fill:#FFFFFF;" points="1231.403,281.08 1231.403,292.623 1271.42,269.537 1281.425,263.765 
		1281.425,275.308 1341.45,240.678 1351.455,234.907 1351.455,246.45 1391.472,223.363 1391.472,211.82 1421.485,194.505 
		1421.485,182.961 1431.489,177.19 1431.489,165.646 1411.481,177.19 1411.481,165.646 1401.476,171.418 1391.472,177.19 
		1391.472,165.646 1391.472,165.646 1391.472,165.646 1381.468,171.418 1381.468,171.418 1381.468,171.418 1381.468,171.418 
		1381.468,159.875 1371.463,165.646 1351.46,177.186 1351.455,177.19 1351.455,177.183 1351.455,165.646 1341.461,171.412 
		1331.446,177.19 1331.446,165.627 1331.446,154.103 1321.464,159.862 1321.442,148.331 1291.429,165.646 1291.429,154.103 
		1281.425,159.875 1271.42,165.646 1271.42,154.103 1261.416,159.875 1251.412,165.646 1251.412,154.103 1241.407,159.875 
		1231.403,165.646 1231.403,177.19 1211.394,188.733 1211.394,200.276 1191.386,211.82 1191.386,223.363 1181.381,229.135 
		1181.381,252.222 1171.377,257.993 1171.377,257.993 1171.377,269.537 1171.377,269.537 1171.377,269.537 1181.381,263.765 
		1181.381,275.308 1161.373,286.852 1161.373,298.395 1161.373,298.395 1151.369,304.167 1151.369,315.71 1141.364,321.482 
		1141.364,333.025 1171.377,315.71 1181.381,309.939 1181.381,321.482 1211.394,304.167 1211.394,292.623 1221.399,286.852 	"/>
	<polygon id="XMLID_726_" style="fill:#FFFFFF;" points="1541.537,102.158 1531.532,107.929 1521.528,113.701 1521.528,102.158 
		1521.528,90.614 1511.524,96.386 1501.52,102.158 1501.52,102.158 1501.52,113.701 1471.507,131.016 1471.507,142.56 
		1471.507,142.56 1451.498,154.103 1451.498,165.646 1471.506,154.103 1481.511,148.331 1481.511,159.875 1491.515,154.103 
		1491.515,142.56 1501.519,136.788 1511.524,131.016 1511.524,142.56 1561.545,113.701 1561.545,102.158 1541.537,113.701 	"/>
</g>
<g id="XMLID_1_">
</g>
<g id="XMLID_4_">
</g>
<g id="XMLID_5_">
</g>
<g id="XMLID_6_">
</g>
<g id="XMLID_7_">
</g>
<g id="XMLID_8_">
</g>
<g id="XMLID_9_">
</g>
<g id="XMLID_10_">
</g>
<g id="XMLID_11_">
</g>
<g id="XMLID_12_">
</g>
<g id="XMLID_13_">
</g>
<g id="XMLID_14_">
</g>
<g id="XMLID_15_">
</g>
<g id="XMLID_16_">
</g>
<g id="XMLID_17_">
</g>
</svg>
