<?xml version="1.0" encoding="utf-8"?>
<!-- Generator: Adobe Illustrator 19.0.0, SVG Export Plug-In . SVG Version: 6.00 Build 0)  -->
<svg version="1.1" id="Layer_1" xmlns="http://www.w3.org/2000/svg" xmlns:xlink="http://www.w3.org/1999/xlink" x="0px" y="0px"
	 viewBox="0 0 125.5 150" style="enable-background:new 0 0 125.5 150;" xml:space="preserve">
<style type="text/css">
	.st0{fill:#662E10;}
	.st1{fill:#D17624;}
	.st2{fill:#AF6122;}
	.st3{fill:#247EEA;}
	.st4{fill:#F7931E;}
	.st5{fill:#A35113;}
	.st6{fill:#CEBD20;}
	.st7{fill:#FCEE21;}
	.st8{fill:#C5E8FF;}
	.st9{fill:#133FE2;}
	.st10{fill:#20719E;}
	.st11{fill:#80C1D8;}
</style>
<g id="XMLID_145_">
	<polygon id="XMLID_151_" class="st0" points="17.9,134.5 17.9,124.1 44.8,139.6 44.8,150 	"/>
	<polygon id="XMLID_150_" class="st0" points="35.9,134.5 35.9,124.1 62.7,139.6 62.7,150 	"/>
	<polygon id="XMLID_149_" class="st0" points="0,124.1 0,103.4 26.9,118.9 26.9,139.6 	"/>
	<polygon id="XMLID_148_" class="st1" points="35.9,62.1 9,46.5 17.9,41.4 44.8,56.9 	"/>
	<polygon id="XMLID_147_" class="st1" points="44.8,46.6 17.9,31.1 26.9,25.9 53.8,41.4 	"/>
	<polygon id="XMLID_146_" class="st0" points="9,129.3 9,118.9 35.9,134.4 35.9,144.8 	"/>
	<polygon id="XMLID_129_" class="st1" points="26.9,87.9 0,72.4 9,67.2 35.9,82.7 	"/>
	<polygon id="XMLID_127_" class="st2" points="9,67.2 9,46.5 35.9,62.1 35.9,82.7 	"/>
	<polygon id="XMLID_120_" class="st2" points="0,103.4 0,72.4 26.9,87.9 26.9,118.9 	"/>
	<polygon id="XMLID_119_" class="st2" points="17.9,41.4 17.9,31 44.8,46.5 44.8,56.9 	"/>
	<polygon id="XMLID_121_" class="st3" points="35.9,72.4 44.8,67.2 44.8,56.9 53.8,51.7 53.8,41.4 98.6,15.5 98.6,25.9 107.6,20.7 
		107.6,31 116.5,25.9 116.5,77.6 107.6,82.7 107.6,93.1 98.6,98.3 98.6,108.6 53.8,134.5 53.8,124.1 44.8,129.3 44.8,118.9 
		35.9,124.1 	"/>
	<polygon id="XMLID_122_" class="st4" points="53.7,41.3 44.8,46.5 44.8,56.9 35.9,62.1 35.9,82.7 26.9,87.9 26.8,118.9 35.8,113.7 
		35.8,103.4 44.8,98.2 44.8,118.9 53.7,113.7 53.7,134.4 62.7,129.3 62.7,139.6 107.5,113.7 107.5,103.4 116.5,98.2 116.5,87.9 
		125.5,82.7 125.5,72.4 116.5,77.5 116.5,87.9 89.6,103.4 89.6,113.7 71.7,124.1 71.7,113.7 62.7,118.9 62.7,108.6 80.6,98.2 
		80.6,87.9 89.6,82.7 89.6,72.4 71.7,82.7 71.7,93.1 62.7,98.2 62.7,87.9 53.7,93.1 53.7,82.7 71.7,72.4 71.7,62 53.7,72.4 53.7,62 
		71.7,51.7 71.7,41.3 53.7,51.7 53.7,62 44.8,67.2 44.8,56.9 53.7,51.7 	"/>
	<polygon id="XMLID_123_" class="st5" points="53.8,62.1 53.8,72.4 62.7,67.2 62.7,56.9 	"/>
	<polygon id="XMLID_124_" class="st5" points="26.9,118.9 35.9,113.8 35.8,103.4 44.9,98.3 44.8,118.9 53.8,113.8 53.8,134.5 
		62.7,129.3 62.7,139.6 98.6,118.9 98.6,129.3 62.7,150 62.7,139.6 44.8,150 44.8,139.6 35.9,144.8 35.9,134.5 26.9,139.6 	"/>
	<polygon id="XMLID_144_" class="st6" points="62.7,5.2 71.7,0 125.5,31 116.5,36.2 	"/>
	<polygon id="XMLID_125_" class="st7" points="107.6,93.1 107.6,72.4 116.5,67.2 116.5,46.5 107.6,51.7 107.6,41.4 98.6,46.5 
		98.6,36.2 89.6,41.4 89.6,20.7 98.6,15.5 98.6,25.9 107.6,20.7 107.6,31 116.5,25.9 116.5,36.2 125.5,31 125.5,72.4 116.5,77.6 
		116.5,87.9 	"/>
	<polygon id="XMLID_126_" class="st8" points="71.7,31 71.7,41.4 89.6,31 89.6,20.7 	"/>
	<polygon id="XMLID_128_" class="st9" points="89.6,62.1 98.6,56.9 98.6,46.5 107.6,41.4 107.6,51.7 116.5,46.5 116.5,67.2 
		107.6,72.4 107.6,93.1 89.6,103.4 89.6,113.8 71.7,124.1 71.7,113.8 62.7,118.9 62.7,108.6 80.7,98.3 80.7,87.9 89.6,82.7 	"/>
	<polygon id="XMLID_118_" class="st10" points="53.8,41.4 26.9,25.9 44.8,15.5 71.7,31 	"/>
	<polygon id="XMLID_143_" class="st11" points="71.7,31 44.8,15.6 62.7,5.2 89.6,20.7 	"/>
</g>
</svg>
