<?xml version="1.0" encoding="utf-8"?>
<!-- Generator: Adobe Illustrator 19.0.0, SVG Export Plug-In . SVG Version: 6.00 Build 0)  -->
<svg version="1.1" id="Layer_1" xmlns="http://www.w3.org/2000/svg" xmlns:xlink="http://www.w3.org/1999/xlink" x="0px" y="0px"
	 viewBox="0 0 100 100" style="enable-background:new 0 0 100 100;" xml:space="preserve">
<style type="text/css">
	.st0{fill:#0B333E;}
	.st1{fill:#297E91;}
	.st2{fill:#79CADC;}
</style>
<g id="XMLID_1_">
	<g id="XMLID_44_">
		<polygon id="XMLID_37_" class="st0" points="40.4,44.4 11.5,27.8 11.5,38.9 40.4,55.6 		"/>
		<polygon id="XMLID_38_" class="st0" points="50,72.2 21.1,55.5 21.1,66.6 50,83.3 		"/>
		<polygon id="XMLID_39_" class="st0" points="40.4,88.9 11.5,72.2 11.5,83.3 40.4,100 		"/>
		<polygon id="XMLID_40_" class="st0" points="69.3,38.9 40.4,22.2 40.4,33.3 69.3,50 		"/>
		<polygon id="XMLID_41_" class="st0" points="78.9,22.2 50,5.5 50,16.6 78.9,33.3 		"/>
		<polygon id="XMLID_42_" class="st0" points="78.9,66.6 50,50 50,61.1 78.9,77.8 		"/>
		<polygon id="XMLID_43_" class="st0" points="59.6,55.6 30.7,38.9 30.7,50 59.6,66.7 		"/>
	</g>
	<g id="XMLID_36_">
		<polygon id="XMLID_26_" class="st1" points="40.4,44.4 11.5,27.8 21.1,22.2 50,38.9 		"/>
		<polygon id="XMLID_28_" class="st1" points="50,50 21.1,33.3 30.7,27.7 59.6,44.4 		"/>
		<polygon id="XMLID_29_" class="st1" points="59.6,55.6 30.7,38.9 40.4,33.3 69.2,50 		"/>
		<polygon id="XMLID_30_" class="st1" points="69.2,38.8 40.4,22.2 50,16.6 78.9,33.3 		"/>
		<polygon id="XMLID_31_" class="st1" points="78.9,22.2 50,5.6 59.6,0 88.5,16.7 		"/>
		<polygon id="XMLID_32_" class="st1" points="69.2,61.1 40.4,44.4 50,38.8 78.9,55.5 		"/>
		<polygon id="XMLID_33_" class="st1" points="78.9,66.7 50,50 59.6,44.4 88.5,61.1 		"/>
		<polygon id="XMLID_34_" class="st1" points="50,72.2 21.1,55.6 30.7,50 59.6,66.7 		"/>
		<polygon id="XMLID_35_" class="st1" points="40.4,88.9 11.5,72.2 21.1,66.6 50,83.3 		"/>
	</g>
	<g id="XMLID_17_">
		<polygon id="XMLID_18_" class="st2" points="40.4,44.4 50,38.9 50,50 40.4,55.6 		"/>
		<polygon id="XMLID_19_" class="st2" points="50,50 59.6,44.4 59.6,55.6 50,61.1 		"/>
		<polygon id="XMLID_20_" class="st2" points="59.6,55.5 69.3,50 69.3,61.1 59.6,66.6 		"/>
		<polygon id="XMLID_21_" class="st2" points="69.3,38.9 78.9,33.3 78.9,44.4 69.3,50 		"/>
		<polygon id="XMLID_22_" class="st2" points="78.9,22.2 88.5,16.6 88.5,27.8 78.9,33.3 		"/>
		<polygon id="XMLID_23_" class="st2" points="69.3,61.1 78.9,55.5 78.9,66.6 69.3,72.2 		"/>
		<polygon id="XMLID_24_" class="st2" points="78.9,66.6 88.5,61.1 88.5,72.2 78.9,77.8 		"/>
		<polygon id="XMLID_25_" class="st2" points="50,72.2 59.6,66.7 59.6,77.8 50,83.3 		"/>
		<polygon id="XMLID_64_" class="st2" points="40.4,88.9 50,83.3 50,94.4 40.4,100 		"/>
	</g>
</g>
</svg>
