<?xml version="1.0" encoding="utf-8"?>
<!-- Generator: Adobe Illustrator 19.0.0, SVG Export Plug-In . SVG Version: 6.00 Build 0)  -->
<svg version="1.1" id="Layer_1" xmlns="http://www.w3.org/2000/svg" xmlns:xlink="http://www.w3.org/1999/xlink" x="0px" y="0px"
	 viewBox="0 0 108.3 150" style="enable-background:new 0 0 108.3 150;" xml:space="preserve">
<style type="text/css">
	.st0{fill:#9B9B9B;}
	.st1{fill:#C9C9C9;}
	.st2{fill:#FFFFFF;}
</style>
<g id="XMLID_188_">
	<polygon id="XMLID_181_" class="st0" points="32.5,143.8 0,125 0,62.5 32.5,81.3 	"/>
	<polygon id="XMLID_182_" class="st0" points="43.3,62.5 43.3,75 10.8,56.3 10.8,43.8 	"/>
	<polygon id="XMLID_183_" class="st0" points="43.3,25 43.3,37.5 54.2,43.8 54.2,31.3 	"/>
	<polygon id="XMLID_184_" class="st0" points="75.8,43.8 75.8,56.3 43.3,37.5 43.3,25 	"/>
	<polygon id="XMLID_186_" class="st0" points="65,112.5 65,125 75.8,131.3 75.8,118.8 	"/>
	<polygon id="XMLID_173_" class="st1" points="43.3,62.5 10.8,43.8 32.5,31.3 65,50 	"/>
	<polygon id="XMLID_174_" class="st1" points="75.8,43.8 43.3,25 65,12.5 97.5,31.3 	"/>
	<polygon id="XMLID_175_" class="st1" points="43.3,25 54.2,18.8 65,25 54.2,31.3 	"/>
	<polygon id="XMLID_176_" class="st1" points="86.7,37.5 97.5,31.3 108.3,37.5 97.5,43.8 	"/>
	<polygon id="XMLID_185_" class="st0" points="54.2,6.3 54.2,18.8 65,25 65,12.5 	"/>
	<polygon id="XMLID_177_" class="st1" points="54.2,56.3 65,50 75.8,56.3 65,62.5 	"/>
	<polygon id="XMLID_178_" class="st1" points="54.2,6.3 65,0 75.8,6.3 65,12.5 	"/>
	<polygon id="XMLID_187_" class="st0" points="32.5,131.3 32.5,143.8 43.3,150 43.3,137.5 	"/>
	<polygon id="XMLID_179_" class="st1" points="43.3,75 32.5,81.3 0,62.5 10.8,56.3 	"/>
	<polygon id="XMLID_180_" class="st1" points="86.7,100 54.2,81.3 75.8,68.8 108.3,87.5 	"/>
	<polygon id="XMLID_170_" class="st2" points="32.5,143.8 32.5,81.3 43.3,75 43.3,62.5 65,50 65,62.5 75.8,56.3 75.8,43.8 
		97.5,31.3 97.5,43.8 108.3,37.5 108.3,50 86.7,62.5 86.7,100 108.3,87.5 108.3,100 97.5,106.3 97.5,118.8 75.8,131.3 75.8,118.8 
		65,125 65,137.5 43.3,150 43.3,137.5 	"/>
	<polygon id="XMLID_171_" class="st2" points="65,25 75.8,18.8 75.8,6.3 65,12.5 	"/>
	<polygon id="XMLID_172_" class="st2" points="54.2,43.8 65,37.5 65,25 54.2,31.3 	"/>
</g>
</svg>
