<?xml version="1.0" encoding="iso-8859-1"?>
<!-- Generator: Adobe Illustrator 19.0.0, SVG Export Plug-In . SVG Version: 6.00 Build 0)  -->
<svg version="1.1" id="Edited" xmlns="http://www.w3.org/2000/svg" xmlns:xlink="http://www.w3.org/1999/xlink" x="0px" y="0px"
	 viewBox="0 0 440.104 552.999" style="enable-background:new 0 0 440.104 552.999;" xml:space="preserve">
<path id="XMLID_35_" style="fill:#0A323D;" d="M125.482,540.637l-5.332,3.091l-5.333,3.091l-5.332,3.09l-5.333,3.091l-6.442-3.841
	l-6.442-3.84l-6.442-3.84l-6.442-3.841l-6.442-3.84l-6.442-3.84l-6.442-3.841l5.333-3.09l6.442,3.84l6.442,3.84l5.332-3.09
	l5.333-3.091l5.332-3.091l5.333-3.09l6.442,3.84l6.442,3.841l6.442,3.841l6.442,3.84l6.442,3.84L125.482,540.637z M113.708,539.888
	l5.332-3.091l-6.442-3.84l-6.442-3.84l-6.442-3.841l-5.332,3.091l-5.333,3.09l-5.332,3.091l6.442,3.84l6.442,3.841l6.442,3.84
	l5.332-3.091L113.708,539.888z"/>
<path id="XMLID_39_" style="fill:#0A323D;" d="M136.148,534.457l-6.442-3.841l-6.442-3.84l-6.442-3.841l-6.442-3.84l-6.442-3.84
	l5.333-3.091l5.333-3.091l5.333-3.09l5.333-3.091l6.442,3.841l-5.333,3.09l-5.333,3.091l-5.333,3.09l6.442,3.841l6.442,3.84
	l6.442,3.84l6.442,3.841L136.148,534.457z"/>
<path id="XMLID_41_" style="fill:#0A323D;" d="M184.141,506.644l-5.333,3.09l-5.333,3.091l-5.332,3.09l-5.333,3.091l-6.442-3.841
	l-6.442-3.84l-6.442-3.84l-6.442-3.841l-6.442-3.84l5.333-3.091l5.332-3.09l5.333-3.091l5.333-3.09l5.333-3.091l6.442,3.841
	l6.442,3.84l6.442,3.841l6.442,3.84l6.442,3.84L184.141,506.644z M172.366,505.894l5.332-3.091l-6.441-3.84l-6.443-3.84
	l-6.441-3.841l-5.333,3.091l-5.333,3.09l-5.332,3.091l6.442,3.84l6.442,3.841l6.442,3.84l5.332-3.091L172.366,505.894z"/>
<path id="XMLID_44_" style="fill:#0A323D;" d="M216.137,488.102l-5.333,3.09l-5.332,3.09l-5.333,3.091l-5.333,3.091l-6.441-3.841
	l-6.443-3.84l-6.441-3.84l-6.443-3.841l-6.441-3.84l5.332-3.091l6.442,3.841l6.442,3.84l6.442,3.841l6.442,3.84l5.332-3.091
	l-6.441-3.84l-6.443-3.84l-6.441-3.841l5.332-3.091l6.442,3.841l6.442,3.841l6.442,3.84l5.333-3.091l-6.442-3.84l-6.442-3.841
	l-6.442-3.84l-6.442-3.84l5.332-3.091l6.442,3.84l6.442,3.841l6.442,3.84l6.442,3.84l6.442,3.841L216.137,488.102z"/>
<path id="XMLID_46_" style="fill:#0A323D;" d="M248.132,469.559l-5.332,3.091l-5.333,3.09l-5.333,3.091l-5.332,3.09l-6.442-3.84
	l5.332-3.091l5.333-3.09l5.332-3.091l5.333-3.09l-6.442-3.84l-5.332,3.09l-5.333,3.091l-5.333,3.09l-5.332,3.091l-6.442-3.841
	l-6.442-3.84l-6.442-3.841l5.332-3.09l5.333-3.091l5.332-3.09l5.333-3.091l5.333-3.09l6.441,3.84l-5.332,3.091l-5.332,3.09
	l-5.333,3.091l-5.333,3.09l6.442,3.841l5.333-3.091l5.332-3.09l5.333-3.091l5.333-3.09l6.441,3.84l6.443,3.84l6.441,3.841
	L248.132,469.559z"/>
<path id="XMLID_48_" style="fill:#0A323D;" d="M273.684,447.177l5.333-3.091l6.442,3.84l-5.333,3.091l-5.332,3.091l-5.333,3.09
	l-5.332,3.091l-5.333,3.09l-6.442-3.84l-6.442-3.84l-6.442-3.841l-6.442-3.84l-6.442-3.841l5.333-3.09l5.332-3.091l5.333-3.09
	l5.332-3.091l5.333-3.091l6.442,3.841l6.442,3.841l6.442,3.84l-5.333,3.091l-5.332,3.09l-5.333,3.091l-5.332,3.09l6.442,3.84
	l5.332-3.09l5.333-3.091L273.684,447.177z M255.468,442.587l5.332-3.091l-6.442-3.84l-5.332,3.09l-5.333,3.091l-5.332,3.09
	l6.442,3.841l5.332-3.091L255.468,442.587z"/>
<path id="XMLID_51_" style="fill:#0A323D;" d="M290.792,444.836l-6.441-3.84l-6.443-3.84l-6.441-3.841l-6.443-3.841l-6.441-3.84
	l5.332-3.09l5.332-3.091l5.333-3.091l5.333-3.09l6.441,3.84l-5.332,3.091l-5.332,3.09l-5.333,3.091l6.442,3.84l6.442,3.841
	l6.442,3.84l6.442,3.841L290.792,444.836z"/>
<path id="XMLID_53_" style="fill:#0A323D;" d="M338.785,417.022l-5.332,3.091l-5.333,3.09l-5.332,3.091l-5.333,3.09l-6.442-3.84
	l5.333-3.091l5.332-3.09l5.333-3.091l5.332-3.09l-6.442-3.84l-5.332,3.09l-5.333,3.091l-5.332,3.09l-5.333,3.091l-6.442-3.841
	l-6.442-3.84l-6.442-3.841l5.333-3.09l5.332-3.091l5.333-3.09l5.332-3.091l5.333-3.09l6.442,3.84l-5.333,3.091l-5.332,3.09
	l-5.333,3.091l-5.332,3.09l6.442,3.841l5.332-3.091l5.333-3.09l5.332-3.091l5.333-3.09l6.442,3.84l6.442,3.84l6.442,3.841
	L338.785,417.022z"/>
<path id="XMLID_55_" style="fill:#0A323D;" d="M383.665,406.16l-5.333,3.091l-5.333,3.091l-5.332,3.09l-5.332,3.091l-6.443-3.84
	l5.333-3.091l5.333-3.09l5.332-3.091l5.333-3.091l-6.441-3.84l-5.333,3.09l-5.332,3.091l-5.333,3.091l-5.333,3.09l-6.441-3.84
	l-6.443-3.84l-6.441-3.841l-6.443-3.84l-6.441-3.841l5.332-3.09l6.442,3.84l6.442,3.841l6.442,3.84l6.442,3.84l5.332-3.09
	l5.333-3.091l5.333-3.09l-6.442-3.84l-6.442-3.841l-6.442-3.841l-6.442-3.84l5.332-3.09l6.442,3.84l6.442,3.84l6.442,3.841
	l6.442,3.84l6.442,3.841l6.441,3.84l6.442,3.84L383.665,406.16z"/>
<path id="XMLID_57_" style="fill:#0A323D;" d="M402.776,379.938l-6.442-3.841l-6.442-3.84l-6.442-3.84l-6.442-3.841l-5.332,3.091
	l-5.333,3.09l-5.333,3.091l6.442,3.84l6.442,3.841l6.442,3.84l6.442,3.84l-5.332,3.091l-6.442-3.841l-6.442-3.84l-6.442-3.84
	l-6.442-3.841l-6.442-3.84l5.332-3.091l5.333-3.09l5.332-3.091l5.333-3.09l5.333-3.091l6.441,3.841l6.443,3.84l6.441,3.841
	l6.443,3.84l6.441,3.84L402.776,379.938z"/>
<path id="XMLID_59_" style="fill:#0A323D;" d="M415.444,349.876l-6.442-3.841l-5.332,3.091l-5.333,3.09l-5.332,3.091l6.441,3.84
	l6.443,3.841l6.441,3.84l5.333-3.091l5.333-3.09l5.332-3.091l-6.442-3.84l5.333-3.09l6.442,3.84l6.442,3.84l-5.333,3.091
	l-5.332,3.09l-5.333,3.091l-5.332,3.09l-5.333,3.091l-6.442-3.841l-6.442-3.84l-6.442-3.84l-6.442-3.841l-6.442-3.84l5.332-3.091
	l5.333-3.09l5.333-3.091l5.332-3.09l5.333-3.091l6.442,3.841l6.442,3.84L415.444,349.876z"/>
<polygon id="XMLID_33_" style="fill:#0A323D;" points="306.041,147.187 204.527,88.193 204.36,29.494 305.875,88.487 "/>
<polygon id="XMLID_32_" style="fill:#0A323D;" points="306.707,382.013 205.192,323.019 205.026,264.319 306.541,323.313 "/>
<polygon id="XMLID_31_" style="fill:#0A323D;" points="255.456,352.806 153.942,293.813 153.775,235.113 255.29,294.107 "/>
<polygon id="XMLID_30_" style="fill:#0A323D;" points="255.123,235.407 153.609,176.413 153.442,117.687 254.957,176.681 "/>
<polygon id="XMLID_29_" style="fill:#0A323D;" points="204.206,323.6 102.691,264.606 102.524,205.906 204.039,264.9 "/>
<polygon id="XMLID_28_" style="fill:#0A323D;" points="153.288,411.794 51.773,352.8 51.606,294.1 153.121,353.094 "/>
<polygon id="XMLID_27_" style="fill:#0A323D;" points="152.955,294.394 51.44,235.4 51.274,176.674 152.788,235.668 "/>
<polygon id="XMLID_26_" style="fill:#0A323D;" points="101.681,265.175 0.166,206.181 0,147.481 101.515,206.475 "/>
<polygon id="XMLID_25_" style="fill:#0A323D;" points="102.347,500 0.832,441.006 0.666,382.306 102.18,441.3 "/>
<polygon id="XMLID_23_" style="fill:#267D91;" points="305.875,88.487 204.36,29.494 255.444,0 356.959,58.994 "/>
<polygon id="XMLID_22_" style="fill:#267D91;" points="306.541,323.313 205.026,264.319 256.11,234.825 357.625,293.819 "/>
<polygon id="XMLID_21_" style="fill:#267D91;" points="255.29,294.107 153.775,235.113 204.859,205.619 306.374,264.613 "/>
<polygon id="XMLID_20_" style="fill:#267D91;" points="254.957,176.681 153.442,117.687 204.527,88.193 306.041,147.187 "/>
<polygon id="XMLID_19_" style="fill:#267D91;" points="204.039,264.9 102.524,205.906 153.609,176.413 255.123,235.407 "/>
<polygon id="XMLID_18_" style="fill:#267D91;" points="153.121,353.094 51.606,294.1 102.691,264.606 204.206,323.6 "/>
<polygon id="XMLID_17_" style="fill:#267D91;" points="152.788,235.668 51.274,176.674 102.358,147.18 203.873,206.174 "/>
<polygon id="XMLID_16_" style="fill:#267D91;" points="101.515,206.475 0,147.481 51.107,117.974 152.622,176.968 "/>
<polygon id="XMLID_15_" style="fill:#267D91;" points="102.18,441.3 0.666,382.306 51.773,352.8 153.288,411.794 "/>
<polygon id="XMLID_13_" style="fill:#71D2E2;" points="356.959,58.994 357.125,117.694 306.041,147.187 305.875,88.487 "/>
<polygon id="XMLID_12_" style="fill:#71D2E2;" points="357.625,293.819 357.791,352.519 306.707,382.013 306.541,323.313 "/>
<polygon id="XMLID_11_" style="fill:#71D2E2;" points="306.374,264.613 306.541,323.313 255.456,352.806 255.29,294.107 "/>
<polygon id="XMLID_10_" style="fill:#71D2E2;" points="306.041,147.187 306.208,205.913 255.123,235.407 254.957,176.681 "/>
<polygon id="XMLID_9_" style="fill:#71D2E2;" points="255.123,235.407 255.29,294.107 204.206,323.6 204.039,264.9 "/>
<polygon id="XMLID_8_" style="fill:#71D2E2;" points="204.206,323.6 204.372,382.3 153.288,411.794 153.121,353.094 "/>
<polygon id="XMLID_7_" style="fill:#71D2E2;" points="203.873,206.174 204.039,264.9 152.955,294.394 152.788,235.668 "/>
<polygon id="XMLID_6_" style="fill:#71D2E2;" points="152.622,176.968 152.788,235.668 101.681,265.175 101.515,206.475 "/>
<polygon id="XMLID_61_" style="fill:#71D2E2;" points="153.288,411.794 153.454,470.493 102.347,500 102.18,441.3 "/>
<g id="XMLID_1_">
</g>
<g id="XMLID_2_">
</g>
<g id="XMLID_3_">
</g>
<g id="XMLID_4_">
</g>
<g id="XMLID_5_">
</g>
<g id="XMLID_14_">
</g>
<g id="XMLID_24_">
</g>
<g id="XMLID_34_">
</g>
<g id="XMLID_36_">
</g>
<g id="XMLID_62_">
</g>
<g id="XMLID_63_">
</g>
<g id="XMLID_64_">
</g>
<g id="XMLID_65_">
</g>
<g id="XMLID_66_">
</g>
<g id="XMLID_67_">
</g>
</svg>
