<?xml version="1.0" encoding="utf-8"?>
<!-- Generator: Adobe Illustrator 19.0.0, SVG Export Plug-In . SVG Version: 6.00 Build 0)  -->
<svg version="1.1" xmlns="http://www.w3.org/2000/svg" xmlns:xlink="http://www.w3.org/1999/xlink" x="0px" y="0px"
	 viewBox="0 0 250 250" style="enable-background:new 0 0 250 250;" xml:space="preserve">
<style type="text/css">
	.st0{display:none;}
	.st1{display:inline;fill:#18BC9C;}
	.st2{display:inline;}
	.st3{fill:#0A323D;}
	.st4{fill:#267D91;}
	.st5{fill:#71D2E2;}
</style>
<g id="Background" class="st0">
	<rect id="XMLID_27_" x="-625.4" y="-160.3" class="st1" width="1352.6" height="846.7"/>
</g>
<g id="Guides" class="st0">
	<g id="XMLID_15_" class="st2">
	</g>
	<g id="XMLID_585_" class="st2">
	</g>
</g>
<g id="Logo">
</g>
<g id="Text">
	<g id="XMLID_59_">
		<g id="XMLID_44_">
			<polygon id="XMLID_37_" class="st3" points="58.3,86.2 2.2,53.9 2.2,75.4 58.3,107.7 			"/>
			<polygon id="XMLID_38_" class="st3" points="76.9,140 20.9,107.7 20.9,129.3 76.9,161.6 			"/>
			<polygon id="XMLID_39_" class="st3" points="58.3,172.4 2.2,140.1 2.2,161.6 58.3,193.9 			"/>
			<polygon id="XMLID_40_" class="st3" points="114.3,75.4 58.3,43.1 58.3,64.6 114.3,97 			"/>
			<polygon id="XMLID_41_" class="st3" points="133,43 77,10.7 77,32.2 133,64.6 			"/>
			<polygon id="XMLID_42_" class="st3" points="133,129.2 77,96.9 77,118.5 133,150.8 			"/>
			<polygon id="XMLID_43_" class="st3" points="95.6,107.7 39.6,75.4 39.6,97 95.6,129.3 			"/>
		</g>
		<g id="XMLID_36_">
			<polygon id="XMLID_26_" class="st4" points="58.3,86.2 2.2,53.9 20.9,43.1 76.9,75.4 			"/>
			<polygon id="XMLID_28_" class="st4" points="76.9,96.9 20.9,64.6 39.6,53.8 95.6,86.1 			"/>
			<polygon id="XMLID_29_" class="st4" points="95.6,107.7 39.6,75.4 58.3,64.6 114.3,97 			"/>
			<polygon id="XMLID_30_" class="st4" points="114.3,75.3 58.3,43 76.9,32.2 133,64.6 			"/>
			<polygon id="XMLID_31_" class="st4" points="133,43.1 76.9,10.8 95.6,0 151.6,32.3 			"/>
			<polygon id="XMLID_32_" class="st4" points="114.3,118.4 58.3,86.1 76.9,75.3 133,107.7 			"/>
			<polygon id="XMLID_33_" class="st4" points="133,129.3 76.9,97 95.6,86.2 151.6,118.5 			"/>
			<polygon id="XMLID_34_" class="st4" points="76.9,140.1 20.9,107.7 39.6,97 95.6,129.3 			"/>
			<polygon id="XMLID_35_" class="st4" points="58.3,172.3 2.2,140 20.9,129.3 76.9,161.6 			"/>
		</g>
		<g id="XMLID_25_">
			<polygon id="XMLID_16_" class="st5" points="58.3,86.2 76.9,75.4 76.9,97 58.3,107.7 			"/>
			<polygon id="XMLID_17_" class="st5" points="76.9,97 95.6,86.2 95.6,107.7 76.9,118.5 			"/>
			<polygon id="XMLID_18_" class="st5" points="95.7,107.7 114.4,96.9 114.4,118.5 95.7,129.2 			"/>
			<polygon id="XMLID_19_" class="st5" points="114.4,75.4 133,64.6 133,86.2 114.4,96.9 			"/>
			<polygon id="XMLID_20_" class="st5" points="133,43.1 151.7,32.3 151.7,53.8 133,64.6 			"/>
			<polygon id="XMLID_21_" class="st5" points="114.4,118.5 133.1,107.7 133.1,129.2 114.4,140 			"/>
			<polygon id="XMLID_22_" class="st5" points="133,129.3 151.7,118.5 151.7,140 133,150.8 			"/>
			<polygon id="XMLID_23_" class="st5" points="77,140.1 95.6,129.3 95.6,150.8 77,161.6 			"/>
			<polygon id="XMLID_24_" class="st5" points="58.3,172.4 77,161.6 77,183.2 58.3,193.9 			"/>
		</g>
		<g id="XMLID_1_">
			<path id="XMLID_2_" class="st3" d="M41.3,250L6.8,230l9.5-5.5c3.4-1.9,6.7-3,10.1-3.2c3.4-0.2,6.6,0.6,9.6,2.3
				c1.8,1,2.8,2.2,3.2,3.5c0.4,1.3,0,2.6-1.1,3.8c2.4-0.9,4.9-1.3,7.8-1.1c2.8,0.2,5.3,0.9,7.4,2.1c3.1,1.8,4.5,3.7,4.3,5.8
				c-0.2,2-1.9,4-5,5.8L41.3,250z M24.9,237.4l7.5-4.3c2.3-1.4,3.6-2.7,3.8-4.1c0.2-1.4-0.8-2.7-2.9-3.9c-2.2-1.3-4.5-1.8-7-1.7
				c-2.5,0.2-5,1-7.6,2.5l-6.8,3.9L24.9,237.4z M27.4,238.8l14.2,8.2l8.5-4.9c2.4-1.4,3.6-2.8,3.8-4.3c0.1-1.5-1-2.9-3.2-4.2
				c-2.1-1.2-4.4-1.8-6.9-1.9c-2.6-0.1-5,0.6-7.4,2L27.4,238.8z"/>
			<path id="XMLID_6_" class="st3" d="M56.5,223.1l15.6,9.1l-2.6,1.5l-34.5-20l11-6.4c3.5-2,6.9-3.1,10.4-3.2
				c3.5-0.1,6.8,0.7,9.9,2.5c1.8,1.1,3,2.3,3.4,3.7c0.5,1.4,0.1,2.8-1,4.3c2.5-0.8,4.9-1.1,7.2-0.8s4.4,1,6.5,2.3l3.2,1.9
				c1.1,0.6,2.2,1.1,3.2,1.5c1.1,0.4,2.2,0.5,3.3,0.5l0.6,0.3l-2.7,1.6c-1.1,0-2.3-0.3-3.5-0.7c-1.2-0.5-2.4-1-3.5-1.7l-3.1-1.8
				c-2.1-1.2-4.4-1.8-6.9-1.8c-2.5,0-4.9,0.7-7.2,2L56.5,223.1z M54.1,221.7l8-4.6c2.9-1.7,4.4-3.3,4.5-4.8c0.1-1.5-0.9-2.9-3.1-4.1
				c-2.3-1.3-4.7-1.9-7.3-1.9c-2.6,0.1-5.2,0.9-7.9,2.5l-8.3,4.8L54.1,221.7z"/>
			<path id="XMLID_9_" class="st3" d="M108.7,194.2c4.5,2.6,6.9,5.3,7.4,8.3c0.5,2.9-1.2,5.5-5.1,7.7c-3.8,2.2-8.2,3.2-13.2,2.9
				c-5-0.3-9.7-1.7-14.2-4.3l-5.6-3.3c-4.4-2.6-6.9-5.3-7.4-8.2c-0.5-2.9,1.1-5.5,4.9-7.7c3.9-2.2,8.3-3.2,13.4-2.9
				c5.1,0.3,9.8,1.7,14.2,4.3L108.7,194.2z M100.5,192.5c-3.7-2.2-7.6-3.4-11.7-3.7c-4-0.3-7.6,0.5-10.8,2.3
				c-3.1,1.8-4.3,3.8-3.8,6.2c0.6,2.3,2.7,4.6,6.4,6.7l5.7,3.3c3.8,2.2,7.6,3.4,11.6,3.8c4,0.3,7.5-0.4,10.6-2.2
				c3.2-1.8,4.5-3.9,4-6.2c-0.5-2.3-2.7-4.6-6.4-6.8L100.5,192.5z"/>
			<path id="XMLID_12_" class="st3" d="M126.1,189.6l6.3,2.5l0.2-0.1l-4.1-3.8l-17.9-18.3l2.5-1.5l31.6,10.4l6.5,2.4l0.1-0.1
				l-4.3-3.7l-18.9-17.8l2.7-1.6L157,183l-2.5,1.5l-33.7-11.2l-4.5-1.6l-0.1,0.1l2.8,2.6l19.1,19.6l-2.5,1.5l-42.8-15.2l2.7-1.6
				L126.1,189.6z"/>
			<path id="XMLID_14_" class="st3" d="M181,159.2c-1.9-1.1-4.1-1.6-6.6-1.5c-2.5,0.1-5.9,0.8-10.1,2.2c-4.5,1.5-8.4,2.3-11.7,2.5
				c-3.3,0.2-6.3-0.5-8.9-2c-2.6-1.5-3.8-3.4-3.4-5.5c0.4-2.1,2.2-4.1,5.4-6c3.3-1.9,7-2.9,11-3c4,0,7.4,0.8,10.2,2.5l0.1,0.1
				l-2.4,1.4c-2.3-1.3-5-2-8-2c-3,0-5.8,0.8-8.5,2.3c-2.6,1.5-4,3-4.2,4.6c-0.2,1.6,0.6,2.9,2.4,3.9c1.7,1,3.9,1.5,6.4,1.4
				c2.5-0.1,5.9-0.9,10.1-2.3c4.4-1.5,8.4-2.3,11.8-2.4c3.4-0.1,6.5,0.6,9.1,2.1c2.7,1.6,3.9,3.5,3.4,5.6c-0.5,2.2-2.4,4.2-5.6,6.1
				c-3.2,1.9-6.9,3-11.1,3.4c-4.1,0.4-7.8-0.4-11.1-2.4l-0.1-0.1l2.4-1.4c2.7,1.6,5.6,2.2,8.8,1.8c3.2-0.3,6-1.3,8.6-2.7
				c2.6-1.5,4-3,4.4-4.6C183.8,161.8,183,160.4,181,159.2z"/>
			<path id="XMLID_46_" class="st3" d="M199.9,138.8l-15.6,9l14.3,8.3l17.9-10.3l2.4,1.4L198.4,159l-34.5-20l20.4-11.8l2.4,1.4
				l-17.8,10.3l13,7.5l15.6-9L199.9,138.8z"/>
			<path id="XMLID_48_" class="st3" d="M211.6,133.3l15.6,9.1l-2.6,1.5l-34.5-20l11-6.4c3.5-2,6.9-3.1,10.4-3.2
				c3.5-0.1,6.8,0.7,9.9,2.5c1.8,1.1,3,2.3,3.4,3.7c0.5,1.4,0.1,2.8-1,4.3c2.5-0.8,4.9-1.1,7.2-0.8c2.3,0.3,4.4,1,6.5,2.3l3.2,1.9
				c1.1,0.6,2.2,1.1,3.2,1.5c1.1,0.4,2.2,0.5,3.3,0.5l0.6,0.3L245,132c-1.1,0-2.3-0.3-3.5-0.7c-1.2-0.5-2.4-1-3.5-1.7l-3.1-1.8
				c-2.1-1.2-4.4-1.8-6.9-1.8c-2.5,0-4.9,0.7-7.2,2L211.6,133.3z M209.2,131.9l8-4.6c2.9-1.7,4.4-3.3,4.5-4.8
				c0.1-1.5-0.9-2.9-3.1-4.1c-2.3-1.3-4.7-1.9-7.3-1.9c-2.6,0.1-5.2,0.9-7.9,2.5l-8.3,4.8L209.2,131.9z"/>
			<path id="XMLID_51_" class="st3" d="M137.6,228.4c-1.9-1.1-4.1-1.6-6.6-1.5c-2.5,0.1-5.9,0.8-10.1,2.2c-4.5,1.5-8.4,2.3-11.7,2.5
				c-3.3,0.2-6.3-0.5-8.9-2c-2.6-1.5-3.8-3.4-3.4-5.5c0.4-2.1,2.2-4.1,5.4-6c3.3-1.9,7-2.9,11-3c4,0,7.4,0.8,10.2,2.5l0.1,0.1
				l-2.4,1.4c-2.3-1.3-5-2-8-2c-3,0-5.8,0.8-8.5,2.3c-2.6,1.5-4,3-4.2,4.6c-0.2,1.6,0.6,2.9,2.4,3.9c1.7,1,3.9,1.5,6.4,1.4
				c2.5-0.1,5.9-0.9,10.1-2.3c4.4-1.5,8.4-2.3,11.8-2.4c3.4-0.1,6.5,0.6,9.1,2.1c2.7,1.6,3.9,3.5,3.4,5.6c-0.5,2.2-2.4,4.2-5.6,6.1
				c-3.2,1.9-6.9,3-11.1,3.4c-4.1,0.4-7.8-0.4-11.1-2.4l-0.1-0.1l2.4-1.4c2.7,1.6,5.6,2.2,8.8,1.8c3.2-0.3,6-1.2,8.6-2.7
				c2.6-1.5,4-3,4.4-4.6C140.3,230.9,139.5,229.5,137.6,228.4z"/>
			<path id="XMLID_53_" class="st3" d="M149.1,213.7l-9.1-16.9l3.1-1.8l10.1,19.6l12.6,7.3l-2.6,1.5l-12.8-7.4l-33.4-5.8l3.1-1.8
				L149.1,213.7z"/>
			<path id="XMLID_55_" class="st3" d="M206.4,198.3l-2.6,1.5l-48-6.6l-0.1,0.1l29.6,17.2l-2.7,1.5l-34.5-20l2.7-1.5l48,6.6l0.1-0.1
				l-29.6-17.2l2.6-1.5L206.4,198.3z"/>
			<path id="XMLID_57_" class="st3" d="M226.4,174.2l0.2,0.1c3.2,2.2,4.7,4.4,4.7,6.8c-0.1,2.3-1.8,4.5-5.2,6.5
				c-3.6,2.1-7.9,3-12.9,2.6c-5-0.3-9.7-1.8-14.1-4.3l-5.6-3.3c-4.4-2.6-6.9-5.3-7.4-8.2c-0.6-2.9,0.9-5.4,4.5-7.5
				c3.4-2,7.1-3,11.1-3c4,0,7.8,0.9,11.6,2.8l0.1,0.1l-2.5,1.4c-3.2-1.5-6.3-2.2-9.3-2.2c-3,0-5.9,0.8-8.6,2.3
				c-2.8,1.6-3.9,3.6-3.3,6c0.6,2.3,2.8,4.6,6.4,6.7l5.7,3.3c3.7,2.1,7.6,3.4,11.6,3.8c4,0.4,7.5-0.3,10.3-1.9
				c2.7-1.6,4.1-3.2,4.1-5c0-1.7-1.3-3.5-3.9-5.5L226.4,174.2z"/>
		</g>
	</g>
</g>
</svg>
