<?xml version="1.0" encoding="iso-8859-1"?>
<!-- Generator: Adobe Illustrator 19.0.0, SVG Export Plug-In . SVG Version: 6.00 Build 0)  -->
<svg version="1.1" xmlns="http://www.w3.org/2000/svg" xmlns:xlink="http://www.w3.org/1999/xlink" x="0px" y="0px"
	 viewBox="0 0 533 520.095" style="enable-background:new 0 0 533 520.095;" xml:space="preserve">
<g id="Text">
	<g id="XMLID_83_">
		<path id="XMLID_148_" style="fill:#0A323D;" d="M66.482,517.846l-65.403-45.74l21.816-9.229c3.754-1.589,7.456-2.776,11.106-3.564
			c3.65-0.788,7.212-1.135,10.684-1.042c3.473,0.094,6.846,0.659,10.118,1.694c3.272,1.036,6.391,2.591,9.355,4.664
			c1.678,1.173,2.994,2.389,3.953,3.647c0.957,1.259,1.544,2.531,1.756,3.818c0.214,1.289,0.059,2.557-0.465,3.803
			c-0.525,1.248-1.43,2.446-2.718,3.595c2.584-0.621,5.242-0.965,7.974-1.028c2.732-0.063,5.421,0.127,8.064,0.571
			c2.644,0.445,5.157,1.121,7.542,2.028c2.383,0.907,4.519,2.021,6.405,3.341c2.995,2.095,5.071,4.183,6.228,6.264
			c1.159,2.082,1.477,4.106,0.953,6.076c-0.522,1.969-1.841,3.847-3.956,5.632c-2.116,1.785-4.933,3.422-8.45,4.91L66.482,517.846z
			 M36.651,489.979l17.047-7.212c5.118-2.266,8.067-4.73,8.844-7.396c0.776-2.664-0.826-5.39-4.81-8.175
			c-4.192-2.932-8.765-4.469-13.716-4.609c-4.951-0.14-10.42,1.056-16.406,3.588l-15.576,6.59L36.651,489.979z M41.278,493.215
			l26.772,18.724l18.721-7.921c2.705-1.145,4.817-2.391,6.338-3.738c1.519-1.349,2.446-2.75,2.784-4.204
			c0.335-1.453,0.057-2.939-0.84-4.46c-0.898-1.519-2.409-3.021-4.536-4.51c-1.826-1.277-3.879-2.333-6.158-3.168
			c-2.279-0.833-4.711-1.367-7.298-1.602c-2.586-0.232-5.274-0.138-8.062,0.285s-5.619,1.243-8.494,2.459L41.278,493.215z"/>
		<path id="XMLID_152_" style="fill:#0A323D;" d="M130.531,460.195l-21.461,9.079l27.222,19.037l-6.291,2.662l-65.403-45.74
			l23.997-10.152c3.856-1.632,7.75-2.809,11.683-3.531c3.934-0.723,7.807-0.975,11.62-0.757c3.814,0.219,7.502,0.919,11.065,2.101
			c3.563,1.182,6.902,2.862,10.016,5.04c2.155,1.508,3.813,3.085,4.971,4.729c1.158,1.646,1.822,3.288,1.998,4.929
			c0.173,1.64-0.123,3.244-0.893,4.813c-0.769,1.569-1.987,3.043-3.655,4.421l46.273,11.633l0.584,0.408l-6.646,2.812
			L130.531,460.195z M104.354,465.975l19.127-8.092c2.875-1.216,5.014-2.558,6.416-4.025c1.404-1.467,2.181-2.964,2.332-4.491
			c0.151-1.526-0.27-3.045-1.264-4.557c-0.996-1.512-2.42-2.917-4.277-4.216c-2.247-1.571-4.674-2.813-7.282-3.726
			s-5.346-1.47-8.209-1.67c-2.865-0.2-5.8-0.042-8.808,0.474c-3.008,0.517-6.033,1.419-9.078,2.706l-17.707,7.491L104.354,465.975z"
			/>
		<path id="XMLID_155_" style="fill:#0A323D;" d="M221.545,419.522c4.582,3.204,8.046,6.387,10.392,9.545
			c2.345,3.159,3.578,6.176,3.698,9.05c0.118,2.873-0.886,5.559-3.016,8.056c-2.129,2.497-5.374,4.67-9.737,6.516
			c-4.329,1.832-8.975,2.997-13.931,3.498c-4.956,0.5-10.006,0.376-15.147-0.373s-10.257-2.123-15.341-4.123
			c-5.086-1.999-9.919-4.602-14.501-7.807l-7.008-4.9c-4.581-3.204-8.037-6.398-10.362-9.582c-2.327-3.184-3.548-6.221-3.667-9.112
			c-0.117-2.892,0.88-5.582,2.992-8.072s5.332-4.651,9.662-6.483c4.363-1.846,9.033-3.022,14.006-3.53
			c4.975-0.507,10.031-0.378,15.172,0.389c5.14,0.768,10.244,2.162,15.31,4.187c5.065,2.025,9.891,4.64,14.472,7.844
			L221.545,419.522z M208.207,417.199c-3.862-2.701-7.857-4.927-11.988-6.676c-4.128-1.749-8.242-2.975-12.342-3.678
			c-4.099-0.703-8.144-0.873-12.134-0.514c-3.991,0.361-7.762,1.292-11.313,2.794c-3.483,1.475-6.029,3.216-7.637,5.223
			c-1.606,2.009-2.298,4.183-2.071,6.524c0.227,2.341,1.381,4.818,3.463,7.433c2.084,2.615,5.058,5.273,8.92,7.975l7.098,4.964
			c3.894,2.723,7.921,4.952,12.084,6.686c4.163,1.735,8.319,2.952,12.467,3.65c4.147,0.699,8.201,0.866,12.158,0.503
			c3.96-0.363,7.681-1.282,11.164-2.757c3.585-1.517,6.189-3.273,7.811-5.271c1.624-1.997,2.298-4.163,2.022-6.501
			c-0.275-2.337-1.471-4.806-3.588-7.407c-2.117-2.599-5.122-5.261-9.016-7.983L208.207,417.199z"/>
		<path id="XMLID_158_" style="fill:#0A323D;" d="M262.42,415.136l12.436,6.135l-6.912-7.967l-32.168-40.49l5.632-2.383
			l64.028,27.012l12.531,5.689l-7.806-8.193L275.754,355.9l6.393-2.704l46.479,53.746l-5.986,2.532l-67.906-28.698l-8.347-3.729
			l4.643,5.297l34.016,43.036l-5.986,2.532l-84.276-37.755l6.393-2.705L262.42,415.136z"/>
		<path id="XMLID_177_" style="fill:#0A323D;" d="M385.299,364.916c-1.797-1.256-3.722-2.231-5.773-2.927
			c-2.053-0.694-4.441-1.112-7.167-1.253c-2.726-0.142-5.854-0.003-9.382,0.414c-3.529,0.417-7.7,1.106-12.515,2.067
			c-4.649,0.926-9.008,1.636-13.078,2.129c-4.068,0.495-7.878,0.67-11.426,0.523c-3.546-0.146-6.846-0.649-9.895-1.511
			c-3.05-0.86-5.862-2.192-8.438-3.993c-2.515-1.76-4.197-3.619-5.046-5.58c-0.849-1.96-0.916-3.923-0.199-5.89
			c0.716-1.967,2.185-3.882,4.405-5.746s5.139-3.562,8.759-5.093c3.89-1.645,7.908-2.773,12.056-3.385
			c4.146-0.611,8.202-0.765,12.168-0.46c3.965,0.307,7.723,1.036,11.272,2.189c3.549,1.153,6.687,2.684,9.412,4.589l-6.291,2.662
			c-2.126-1.486-4.519-2.685-7.176-3.595c-2.657-0.909-5.456-1.481-8.397-1.716c-2.941-0.235-5.971-0.112-9.086,0.365
			c-3.116,0.478-6.197,1.361-9.241,2.648c-3.044,1.288-5.403,2.647-7.075,4.078c-1.673,1.431-2.732,2.854-3.179,4.269
			c-0.445,1.416-0.333,2.805,0.341,4.167c0.671,1.362,1.833,2.62,3.479,3.771c1.557,1.089,3.325,1.955,5.302,2.598
			c1.978,0.643,4.304,1.027,6.984,1.154c2.678,0.127,5.772-0.006,9.283-0.398c3.51-0.393,7.559-1.071,12.148-2.039
			c4.848-0.975,9.362-1.709,13.544-2.2c4.183-0.491,8.093-0.642,11.732-0.451c3.64,0.192,7.003,0.761,10.092,1.705
			c3.089,0.945,5.952,2.339,8.587,4.183c2.666,1.864,4.418,3.802,5.262,5.815s0.873,4.009,0.092,5.986
			c-0.782,1.979-2.339,3.897-4.673,5.758c-2.333,1.861-5.325,3.565-8.978,5.11c-2.199,0.931-4.571,1.749-7.116,2.455
			c-2.545,0.707-5.177,1.258-7.896,1.652c-2.721,0.395-5.491,0.602-8.317,0.618c-2.822,0.02-5.611-0.204-8.367-0.67
			c-2.754-0.464-5.447-1.19-8.08-2.177c-2.633-0.987-5.103-2.287-7.408-3.9l6.24-2.64c2.756,1.928,5.727,3.284,8.913,4.07
			c3.188,0.786,6.379,1.157,9.575,1.116c3.198-0.042,6.327-0.416,9.389-1.123c3.061-0.707,5.859-1.597,8.396-2.67
			c2.874-1.216,5.193-2.525,6.961-3.929s2.948-2.836,3.545-4.298s0.587-2.911-0.029-4.349
			C388.392,367.583,387.156,366.215,385.299,364.916z"/>
		<path id="XMLID_179_" style="fill:#0A323D;" d="M430.552,328.628l-34.551,14.617l26.683,18.66l39.726-16.807l4.672,3.268
			l-45.966,19.446l-65.403-45.74l45.712-19.339l4.716,3.298l-39.472,16.699l24.662,17.247l34.551-14.617L430.552,328.628z"/>
		<path id="XMLID_181_" style="fill:#0A323D;" d="M480.599,312.093l-21.46,9.079l27.221,19.038l-6.291,2.661l-65.402-45.74
			l23.997-10.152c3.855-1.631,7.75-2.808,11.683-3.531c3.934-0.723,7.807-0.975,11.621-0.757c3.813,0.219,7.502,0.919,11.064,2.101
			c3.563,1.183,6.901,2.862,10.016,5.04c2.155,1.508,3.813,3.085,4.971,4.729s1.822,3.287,1.998,4.928
			c0.174,1.641-0.123,3.245-0.893,4.813c-0.77,1.569-1.988,3.043-3.655,4.421l46.273,11.633l0.584,0.408l-6.646,2.812
			L480.599,312.093z M454.422,317.875l19.127-8.092c2.875-1.216,5.014-2.558,6.416-4.026c1.404-1.467,2.182-2.964,2.332-4.49
			c0.151-1.526-0.27-3.045-1.264-4.557c-0.996-1.513-2.42-2.918-4.277-4.217c-2.247-1.57-4.674-2.813-7.282-3.726
			s-5.346-1.469-8.21-1.67c-2.864-0.199-5.8-0.042-8.808,0.474c-3.008,0.517-6.033,1.419-9.077,2.707l-17.707,7.49L454.422,317.875z
			"/>
		<path id="XMLID_184_" style="fill:#0A323D;" d="M271.377,493.721c-1.797-1.257-3.721-2.232-5.773-2.928
			c-2.052-0.694-4.44-1.112-7.166-1.253s-5.854-0.002-9.382,0.414c-3.529,0.418-7.7,1.106-12.515,2.067
			c-4.648,0.926-9.008,1.636-13.078,2.13c-4.068,0.495-7.877,0.669-11.425,0.522c-3.547-0.146-6.847-0.649-9.896-1.511
			c-3.05-0.86-5.861-2.192-8.438-3.993c-2.516-1.76-4.198-3.619-5.047-5.579s-0.916-3.924-0.198-5.891
			c0.715-1.967,2.184-3.882,4.404-5.745c2.221-1.864,5.14-3.562,8.759-5.093c3.89-1.646,7.908-2.774,12.056-3.386
			c4.146-0.611,8.202-0.765,12.169-0.459c3.964,0.306,7.722,1.035,11.271,2.188c3.549,1.154,6.687,2.684,9.412,4.59l-6.291,2.661
			c-2.126-1.486-4.52-2.685-7.176-3.594c-2.657-0.91-5.456-1.481-8.398-1.717c-2.94-0.234-5.97-0.112-9.086,0.365
			c-3.115,0.479-6.196,1.361-9.24,2.649c-3.044,1.287-5.402,2.646-7.074,4.077c-1.674,1.431-2.733,2.854-3.18,4.269
			c-0.445,1.416-0.332,2.805,0.341,4.168c0.672,1.362,1.833,2.62,3.479,3.771c1.558,1.09,3.324,1.956,5.302,2.598
			c1.978,0.643,4.305,1.027,6.983,1.154s5.773-0.005,9.284-0.397c3.509-0.394,7.56-1.072,12.148-2.039
			c4.847-0.975,9.362-1.709,13.544-2.201c4.184-0.491,8.092-0.642,11.732-0.451c3.641,0.192,7.003,0.761,10.092,1.705
			c3.089,0.946,5.951,2.34,8.586,4.183c2.666,1.864,4.419,3.803,5.263,5.816c0.843,2.013,0.873,4.009,0.091,5.985
			c-0.781,1.979-2.338,3.898-4.672,5.759c-2.333,1.86-5.325,3.564-8.979,5.109c-2.198,0.931-4.57,1.749-7.115,2.455
			c-2.545,0.707-5.177,1.259-7.896,1.652c-2.721,0.395-5.492,0.602-8.317,0.619c-2.822,0.019-5.612-0.204-8.366-0.67
			c-2.755-0.465-5.448-1.19-8.082-2.178c-2.633-0.987-5.102-2.287-7.408-3.9l6.241-2.64c2.756,1.928,5.726,3.284,8.913,4.07
			s6.379,1.158,9.576,1.116s6.326-0.416,9.388-1.122c3.061-0.707,5.859-1.598,8.396-2.671c2.875-1.216,5.195-2.525,6.962-3.929
			c1.768-1.402,2.948-2.835,3.545-4.297c0.597-1.463,0.587-2.912-0.029-4.349S273.234,495.02,271.377,493.721z"/>
		<path id="XMLID_186_" style="fill:#0A323D;" d="M299.12,466.656l-13.089-34.494l7.204-3.048l14.101,39.814l24.617,17.216
			l-6.24,2.64l-24.617-17.215l-67.423-17.257l7.407-3.134L299.12,466.656z"/>
		<path id="XMLID_188_" style="fill:#0A323D;" d="M424.392,447.037l-6.24,2.64l-98.437-21.178l55.972,39.144l-6.291,2.661
			l-65.404-45.74l6.291-2.661l98.531,21.188l-56.016-39.175l6.189-2.618L424.392,447.037z"/>
		<path id="XMLID_190_" style="fill:#0A323D;" d="M475.076,402.703c2.918,2.497,5.019,4.953,6.3,7.368
			c1.284,2.416,1.697,4.745,1.24,6.988c-0.456,2.243-1.795,4.382-4.02,6.414c-2.223,2.033-5.362,3.908-9.421,5.626
			c-4.195,1.774-8.704,2.892-13.528,3.353c-4.822,0.461-9.748,0.301-14.772-0.481c-5.025-0.78-10.01-2.159-14.953-4.136
			c-4.942-1.976-9.615-4.504-14.018-7.582l-8.221-5.749c-4.401-3.078-7.763-6.169-10.082-9.272c-2.32-3.103-3.541-6.072-3.664-8.911
			c-0.124-2.839,0.846-5.492,2.906-7.961c2.062-2.469,5.256-4.619,9.586-6.45c3.924-1.66,7.938-2.82,12.041-3.481
			c4.104-0.66,8.201-0.822,12.293-0.485c4.09,0.336,8.146,1.141,12.166,2.415c4.021,1.274,7.894,3.006,11.62,5.194l-6.292,2.661
			c-3.007-1.686-6.041-3.049-9.104-4.09c-3.063-1.04-6.134-1.698-9.216-1.975s-6.189-0.172-9.323,0.313
			c-3.133,0.485-6.29,1.4-9.469,2.746c-3.45,1.459-5.937,3.175-7.459,5.146c-1.523,1.973-2.154,4.112-1.891,6.422
			c0.261,2.31,1.414,4.738,3.455,7.286c2.043,2.548,4.921,5.12,8.634,7.717l8.31,5.812c3.594,2.514,7.385,4.633,11.371,6.358
			c3.986,1.725,7.993,2.971,12.021,3.737c4.027,0.767,7.991,1.015,11.891,0.743c3.899-0.272,7.575-1.139,11.025-2.598
			c6.527-2.762,10.063-5.812,10.607-9.152c0.545-3.339-1.564-7.11-6.326-11.315L475.076,402.703z"/>
	</g>
</g>
<g id="Layer_5">
	<g id="XMLID_2_">
		<g id="XMLID_88_" style="enable-background:new    ;">
			<g id="XMLID_93_">
				<polygon id="XMLID_94_" style="fill:#0C3944;" points="296.803,335.638 203.25,273.011 203.449,222.358 297.002,284.985 				"/>
			</g>
			<g id="XMLID_91_">
				<polygon id="XMLID_92_" style="fill:#237C89;" points="297.002,284.985 203.449,222.358 250.185,202.52 343.738,265.147 				"/>
			</g>
			<g id="XMLID_89_">
				<polygon id="XMLID_90_" style="fill:#42D6E5;" points="343.738,265.147 343.539,315.799 296.803,335.638 297.002,284.985 				
					"/>
			</g>
		</g>
		<g id="XMLID_80_" style="enable-background:new    ;">
			<g id="XMLID_86_">
				<polygon id="XMLID_87_" style="fill:#0C3944;" points="250.245,304.832 156.692,242.206 156.891,191.575 250.444,254.202 				
					"/>
			</g>
			<g id="XMLID_84_">
				<polygon id="XMLID_85_" style="fill:#237C89;" points="250.444,254.202 156.891,191.575 203.648,171.728 297.201,234.355 				
					"/>
			</g>
			<g id="XMLID_81_">
				<polygon id="XMLID_82_" style="fill:#42D6E5;" points="297.201,234.355 297.002,284.985 250.245,304.832 250.444,254.202 				
					"/>
			</g>
		</g>
		<g id="XMLID_73_" style="enable-background:new    ;">
			<g id="XMLID_78_">
				<polygon id="XMLID_79_" style="fill:#0C3944;" points="109.837,415 16.284,352.373 16.483,301.72 110.036,364.347 				"/>
			</g>
			<g id="XMLID_76_">
				<polygon id="XMLID_77_" style="fill:#237C89;" points="110.036,364.347 16.483,301.72 63.22,281.882 156.773,344.509 				"/>
			</g>
			<g id="XMLID_74_">
				<polygon id="XMLID_75_" style="fill:#42D6E5;" points="156.773,344.509 156.573,395.162 109.837,415 110.036,364.347 				"/>
			</g>
		</g>
		<g id="XMLID_66_" style="enable-background:new    ;">
			<g id="XMLID_71_">
				<polygon id="XMLID_72_" style="fill:#0C3944;" points="156.773,344.509 63.22,281.882 63.419,231.252 156.971,293.879 				"/>
			</g>
			<g id="XMLID_69_">
				<polygon id="XMLID_70_" style="fill:#237C89;" points="156.971,293.879 63.419,231.252 110.155,211.414 203.708,274.041 				"/>
			</g>
			<g id="XMLID_67_">
				<polygon id="XMLID_68_" style="fill:#42D6E5;" points="203.708,274.041 203.509,324.671 156.773,344.509 156.971,293.879 				
					"/>
			</g>
		</g>
		<g id="XMLID_59_" style="enable-background:new    ;">
			<g id="XMLID_64_">
				<polygon id="XMLID_65_" style="fill:#0C3944;" points="297.599,133.095 204.046,70.468 204.245,19.838 297.798,82.465 				"/>
			</g>
			<g id="XMLID_62_">
				<polygon id="XMLID_63_" style="fill:#237C89;" points="297.798,82.465 204.245,19.838 250.981,0 344.534,62.627 				"/>
			</g>
			<g id="XMLID_60_">
				<polygon id="XMLID_61_" style="fill:#42D6E5;" points="344.534,62.627 344.335,113.257 297.599,133.095 297.798,82.465 				"/>
			</g>
		</g>
		<g id="XMLID_46_" style="enable-background:new    ;">
			<g id="XMLID_57_">
				<polygon id="XMLID_58_" style="fill:#0C3944;" points="203.708,274.041 110.155,211.414 110.354,160.784 203.907,223.411 				
					"/>
			</g>
			<g id="XMLID_55_">
				<polygon id="XMLID_56_" style="fill:#237C89;" points="203.907,223.411 110.354,160.784 157.09,140.946 250.643,203.572 				"/>
			</g>
			<g id="XMLID_53_">
				<polygon id="XMLID_54_" style="fill:#42D6E5;" points="250.643,203.572 250.444,254.202 203.708,274.041 203.907,223.411 				
					"/>
			</g>
			<g id="XMLID_51_">
				<polygon id="XMLID_52_" style="fill:#0C3944;" points="250.643,203.572 157.09,140.946 157.289,90.316 250.842,152.942 				"/>
			</g>
			<g id="XMLID_49_">
				<polygon id="XMLID_50_" style="fill:#237C89;" points="250.842,152.942 157.289,90.316 204.046,70.468 297.599,133.095 				"/>
			</g>
			<g id="XMLID_47_">
				<polygon id="XMLID_48_" style="fill:#42D6E5;" points="297.599,133.095 297.4,183.725 250.643,203.572 250.842,152.942 				"/>
			</g>
		</g>
		<g id="XMLID_6_" style="enable-background:new    ;">
			<g id="XMLID_11_">
				<polygon id="XMLID_45_" style="fill:#0C3944;" points="157.17,243.249 63.618,180.622 63.817,129.992 157.369,192.619 				"/>
			</g>
			<g id="XMLID_9_">
				<polygon id="XMLID_10_" style="fill:#237C89;" points="157.369,192.619 63.817,129.992 110.553,110.154 204.105,172.781 				"/>
			</g>
			<g id="XMLID_7_">
				<polygon id="XMLID_8_" style="fill:#42D6E5;" points="204.105,172.781 203.907,223.411 157.17,243.249 157.369,192.619 				"/>
			</g>
		</g>
		<g id="XMLID_12_" style="enable-background:new    ;">
			<g id="XMLID_4_">
				<polygon id="XMLID_5_" style="fill:#0C3944;" points="110.633,212.457 17.08,149.83 17.279,99.2 110.832,161.827 				"/>
			</g>
			<g id="XMLID_1_">
				<polygon id="XMLID_3_" style="fill:#237C89;" points="110.832,161.827 17.279,99.2 64.015,79.362 157.568,141.989 				"/>
			</g>
			<g id="XMLID_13_">
				<polygon id="XMLID_14_" style="fill:#42D6E5;" points="157.568,141.989 157.369,192.619 110.633,212.457 110.832,161.827 				
					"/>
			</g>
		</g>
	</g>
	<g id="XMLID_147_">
	</g>
	<g id="XMLID_192_">
	</g>
	<g id="XMLID_193_">
	</g>
	<g id="XMLID_194_">
	</g>
	<g id="XMLID_195_">
	</g>
	<g id="XMLID_196_">
	</g>
	<g id="XMLID_197_">
	</g>
	<g id="XMLID_198_">
	</g>
	<g id="XMLID_199_">
	</g>
	<g id="XMLID_200_">
	</g>
	<g id="XMLID_201_">
	</g>
	<g id="XMLID_202_">
	</g>
	<g id="XMLID_203_">
	</g>
	<g id="XMLID_204_">
	</g>
	<g id="XMLID_205_">
	</g>
</g>
</svg>
