<svg xmlns="http://www.w3.org/2000/svg" viewBox="0 0 533 520.095">
  <g fill="#0a323d">
    <path d="M66.482 517.846l-65.403-45.74 21.816-9.229c3.754-1.589 7.456-2.776 11.106-3.564 3.65-.788 7.212-1.135 10.684-1.042 3.473.094 6.846.659 10.118 1.694 3.272 1.036 6.391 2.591 9.355 4.664 1.678 1.173 2.994 2.389 3.953 3.647.957 1.259 1.544 2.531 1.756 3.818.214 1.289.059 2.557-.465 3.803-.525 1.248-1.43 2.446-2.718 3.595a37.753 37.753 0 0 1 7.974-1.028 42.642 42.642 0 0 1 8.064.571 39.691 39.691 0 0 1 7.542 2.028c2.383.907 4.519 2.021 6.405 3.341 2.995 2.095 5.071 4.183 6.228 6.264 1.159 2.082 1.477 4.106.953 6.076-.522 1.969-1.841 3.847-3.956 5.632-2.116 1.785-4.933 3.422-8.45 4.91l-24.962 10.56zm-29.831-27.867l17.047-7.212c5.118-2.266 8.067-4.73 8.844-7.396.776-2.664-.826-5.39-4.81-8.175-4.192-2.932-8.765-4.469-13.716-4.609-4.951-.14-10.42 1.056-16.406 3.588l-15.576 6.59 24.617 17.214zm4.627 3.236l26.772 18.724 18.721-7.921c2.705-1.145 4.817-2.391 6.338-3.738 1.519-1.349 2.446-2.75 2.784-4.204.335-1.453.057-2.939-.84-4.46-.898-1.519-2.409-3.021-4.536-4.51-1.826-1.277-3.879-2.333-6.158-3.168-2.279-.833-4.711-1.367-7.298-1.602-2.586-.232-5.274-.138-8.062.285s-5.619 1.243-8.494 2.459l-19.227 8.135zM130.531 460.195l-21.461 9.079 27.222 19.037-6.291 2.662-65.403-45.74 23.997-10.152c3.856-1.632 7.75-2.809 11.683-3.531 3.934-.723 7.807-.975 11.62-.757a42.77 42.77 0 0 1 11.065 2.101 38.597 38.597 0 0 1 10.016 5.04c2.155 1.508 3.813 3.085 4.971 4.729 1.158 1.646 1.822 3.288 1.998 4.929.173 1.64-.123 3.244-.893 4.813-.769 1.569-1.987 3.043-3.655 4.421l46.273 11.633.584.408-6.646 2.812-45.08-11.484zm-26.177 5.78l19.127-8.092c2.875-1.216 5.014-2.558 6.416-4.025 1.404-1.467 2.181-2.964 2.332-4.491.151-1.526-.27-3.045-1.264-4.557-.996-1.512-2.42-2.917-4.277-4.216-2.247-1.571-4.674-2.813-7.282-3.726s-5.346-1.47-8.209-1.67c-2.865-.2-5.8-.042-8.808.474-3.008.517-6.033 1.419-9.078 2.706l-17.707 7.491 28.75 20.106zM221.545 419.522c4.582 3.204 8.046 6.387 10.392 9.545 2.345 3.159 3.578 6.176 3.698 9.05.118 2.873-.886 5.559-3.016 8.056-2.129 2.497-5.374 4.67-9.737 6.516-4.329 1.832-8.975 2.997-13.931 3.498-4.956.5-10.006.376-15.147-.373s-10.257-2.123-15.341-4.123c-5.086-1.999-9.919-4.602-14.501-7.807l-7.008-4.9c-4.581-3.204-8.037-6.398-10.362-9.582-2.327-3.184-3.548-6.221-3.667-9.112-.117-2.892.88-5.582 2.992-8.072s5.332-4.651 9.662-6.483c4.363-1.846 9.033-3.022 14.006-3.53 4.975-.507 10.031-.378 15.172.389 5.14.768 10.244 2.162 15.31 4.187a71.514 71.514 0 0 1 14.472 7.844l7.006 4.897zm-13.338-2.323c-3.862-2.701-7.857-4.927-11.988-6.676-4.128-1.749-8.242-2.975-12.342-3.678-4.099-.703-8.144-.873-12.134-.514-3.991.361-7.762 1.292-11.313 2.794-3.483 1.475-6.029 3.216-7.637 5.223-1.606 2.009-2.298 4.183-2.071 6.524.227 2.341 1.381 4.818 3.463 7.433 2.084 2.615 5.058 5.273 8.92 7.975l7.098 4.964c3.894 2.723 7.921 4.952 12.084 6.686 4.163 1.735 8.319 2.952 12.467 3.65 4.147.699 8.201.866 12.158.503 3.96-.363 7.681-1.282 11.164-2.757 3.585-1.517 6.189-3.273 7.811-5.271 1.624-1.997 2.298-4.163 2.022-6.501-.275-2.337-1.471-4.806-3.588-7.407-2.117-2.599-5.122-5.261-9.016-7.983l-7.098-4.965zM262.42 415.136l12.436 6.135-6.912-7.967-32.168-40.49 5.632-2.383 64.028 27.012 12.531 5.689-7.806-8.193-34.407-39.039 6.393-2.704 46.479 53.746-5.986 2.532-67.906-28.698-8.347-3.729 4.643 5.297 34.016 43.036-5.986 2.532-84.276-37.755 6.393-2.705 61.243 27.684zM385.299 364.916a22.847 22.847 0 0 0-5.773-2.927c-2.053-.694-4.441-1.112-7.167-1.253-2.726-.142-5.854-.003-9.382.414-3.529.417-7.7 1.106-12.515 2.067-4.649.926-9.008 1.636-13.078 2.129-4.068.495-7.878.67-11.426.523-3.546-.146-6.846-.649-9.895-1.511a27.775 27.775 0 0 1-8.438-3.993c-2.515-1.76-4.197-3.619-5.046-5.58-.849-1.96-.916-3.923-.199-5.89.716-1.967 2.185-3.882 4.405-5.746s5.139-3.562 8.759-5.093a49.31 49.31 0 0 1 12.056-3.385c4.146-.611 8.202-.765 12.168-.46 3.965.307 7.723 1.036 11.272 2.189 3.549 1.153 6.687 2.684 9.412 4.589l-6.291 2.662c-2.126-1.486-4.519-2.685-7.176-3.595-2.657-.909-5.456-1.481-8.397-1.716-2.941-.235-5.971-.112-9.086.365-3.116.478-6.197 1.361-9.241 2.648-3.044 1.288-5.403 2.647-7.075 4.078-1.673 1.431-2.732 2.854-3.179 4.269-.445 1.416-.333 2.805.341 4.167.671 1.362 1.833 2.62 3.479 3.771 1.557 1.089 3.325 1.955 5.302 2.598 1.978.643 4.304 1.027 6.984 1.154 2.678.127 5.772-.006 9.283-.398 3.51-.393 7.559-1.071 12.148-2.039 4.848-.975 9.362-1.709 13.544-2.2 4.183-.491 8.093-.642 11.732-.451 3.64.192 7.003.761 10.092 1.705a30.388 30.388 0 0 1 8.587 4.183c2.666 1.864 4.418 3.802 5.262 5.815s.873 4.009.092 5.986c-.782 1.979-2.339 3.897-4.673 5.758-2.333 1.861-5.325 3.565-8.978 5.11a58.045 58.045 0 0 1-7.116 2.455 63.485 63.485 0 0 1-7.896 1.652 60.174 60.174 0 0 1-8.317.618 48.048 48.048 0 0 1-8.367-.67 43.61 43.61 0 0 1-8.08-2.177 33.19 33.19 0 0 1-7.408-3.9l6.24-2.64c2.756 1.928 5.727 3.284 8.913 4.07a37.819 37.819 0 0 0 9.575 1.116 44.187 44.187 0 0 0 9.389-1.123c3.061-.707 5.859-1.597 8.396-2.67 2.874-1.216 5.193-2.525 6.961-3.929s2.948-2.836 3.545-4.298.587-2.911-.029-4.349c-.616-1.431-1.852-2.799-3.709-4.098zM430.552 328.628l-34.551 14.617 26.683 18.66 39.726-16.807 4.672 3.268-45.966 19.446-65.403-45.74 45.712-19.339 4.716 3.298-39.472 16.699 24.662 17.247 34.551-14.617 4.67 3.268zM480.599 312.093l-21.46 9.079 27.221 19.038-6.291 2.661-65.402-45.74 23.997-10.152c3.855-1.631 7.75-2.808 11.683-3.531 3.934-.723 7.807-.975 11.621-.757 3.813.219 7.502.919 11.064 2.101a38.644 38.644 0 0 1 10.016 5.04c2.155 1.508 3.813 3.085 4.971 4.729s1.822 3.287 1.998 4.928c.174 1.641-.123 3.245-.893 4.813-.77 1.569-1.988 3.043-3.655 4.421l46.273 11.633.584.408-6.646 2.812-45.081-11.483zm-26.177 5.782l19.127-8.092c2.875-1.216 5.014-2.558 6.416-4.026 1.404-1.467 2.182-2.964 2.332-4.49.151-1.526-.27-3.045-1.264-4.557-.996-1.513-2.42-2.918-4.277-4.217-2.247-1.57-4.674-2.813-7.282-3.726s-5.346-1.469-8.21-1.67c-2.864-.199-5.8-.042-8.808.474-3.008.517-6.033 1.419-9.077 2.707l-17.707 7.49 28.75 20.107zM271.377 493.721a22.8 22.8 0 0 0-5.773-2.928c-2.052-.694-4.44-1.112-7.166-1.253s-5.854-.002-9.382.414c-3.529.418-7.7 1.106-12.515 2.067-4.648.926-9.008 1.636-13.078 2.13-4.068.495-7.877.669-11.425.522-3.547-.146-6.847-.649-9.896-1.511a27.786 27.786 0 0 1-8.438-3.993c-2.516-1.76-4.198-3.619-5.047-5.579s-.916-3.924-.198-5.891c.715-1.967 2.184-3.882 4.404-5.745 2.221-1.864 5.14-3.562 8.759-5.093a49.269 49.269 0 0 1 12.056-3.386c4.146-.611 8.202-.765 12.169-.459 3.964.306 7.722 1.035 11.271 2.188 3.549 1.154 6.687 2.684 9.412 4.59l-6.291 2.661c-2.126-1.486-4.52-2.685-7.176-3.594-2.657-.91-5.456-1.481-8.398-1.717-2.94-.234-5.97-.112-9.086.365-3.115.479-6.196 1.361-9.24 2.649-3.044 1.287-5.402 2.646-7.074 4.077-1.674 1.431-2.733 2.854-3.18 4.269-.445 1.416-.332 2.805.341 4.168.672 1.362 1.833 2.62 3.479 3.771 1.558 1.09 3.324 1.956 5.302 2.598 1.978.643 4.305 1.027 6.983 1.154s5.773-.005 9.284-.397c3.509-.394 7.56-1.072 12.148-2.039 4.847-.975 9.362-1.709 13.544-2.201 4.184-.491 8.092-.642 11.732-.451 3.641.192 7.003.761 10.092 1.705a30.436 30.436 0 0 1 8.586 4.183c2.666 1.864 4.419 3.803 5.263 5.816.843 2.013.873 4.009.091 5.985-.781 1.979-2.338 3.898-4.672 5.759-2.333 1.86-5.325 3.564-8.979 5.109a57.97 57.97 0 0 1-7.115 2.455 63.304 63.304 0 0 1-7.896 1.652 60.341 60.341 0 0 1-8.317.619 48.119 48.119 0 0 1-8.366-.67 43.633 43.633 0 0 1-8.082-2.178 33.212 33.212 0 0 1-7.408-3.9l6.241-2.64c2.756 1.928 5.726 3.284 8.913 4.07s6.379 1.158 9.576 1.116 6.326-.416 9.388-1.122c3.061-.707 5.859-1.598 8.396-2.671 2.875-1.216 5.195-2.525 6.962-3.929 1.768-1.402 2.948-2.835 3.545-4.297.597-1.463.587-2.912-.029-4.349s-1.853-2.8-3.71-4.099zM299.12 466.656l-13.089-34.494 7.204-3.048 14.101 39.814 24.617 17.216-6.24 2.64-24.617-17.215-67.423-17.257 7.407-3.134 58.04 15.478zM424.392 447.037l-6.24 2.64-98.437-21.178 55.972 39.144-6.291 2.661-65.404-45.74 6.291-2.661 98.531 21.188-56.016-39.175 6.189-2.618 65.405 45.739zM475.076 402.703c2.918 2.497 5.019 4.953 6.3 7.368 1.284 2.416 1.697 4.745 1.24 6.988-.456 2.243-1.795 4.382-4.02 6.414-2.223 2.033-5.362 3.908-9.421 5.626-4.195 1.774-8.704 2.892-13.528 3.353-4.822.461-9.748.301-14.772-.481-5.025-.78-10.01-2.159-14.953-4.136a69.302 69.302 0 0 1-14.018-7.582l-8.221-5.749c-4.401-3.078-7.763-6.169-10.082-9.272-2.32-3.103-3.541-6.072-3.664-8.911-.124-2.839.846-5.492 2.906-7.961 2.062-2.469 5.256-4.619 9.586-6.45a52.067 52.067 0 0 1 12.041-3.481 50.852 50.852 0 0 1 12.293-.485 55.096 55.096 0 0 1 12.166 2.415 56.733 56.733 0 0 1 11.62 5.194l-6.292 2.661c-3.007-1.686-6.041-3.049-9.104-4.09-3.063-1.04-6.134-1.698-9.216-1.975s-6.189-.172-9.323.313c-3.133.485-6.29 1.4-9.469 2.746-3.45 1.459-5.937 3.175-7.459 5.146-1.523 1.973-2.154 4.112-1.891 6.422.261 2.31 1.414 4.738 3.455 7.286 2.043 2.548 4.921 5.12 8.634 7.717l8.31 5.812a64.456 64.456 0 0 0 11.371 6.358c3.986 1.725 7.993 2.971 12.021 3.737 4.027.767 7.991 1.015 11.891.743 3.899-.272 7.575-1.139 11.025-2.598 6.527-2.762 10.063-5.812 10.607-9.152.545-3.339-1.564-7.11-6.326-11.315l6.293-2.661z"/>
  </g>
  <path fill="#0c3944" d="M296.803 335.638l-93.553-62.627.199-50.653 93.553 62.627z"/>
  <path fill="#237c89" d="M297.002 284.985l-93.553-62.627 46.736-19.838 93.553 62.627z"/>
  <path fill="#42d6e5" d="M343.738 265.147l-.199 50.652-46.736 19.839.199-50.653z"/>
  <path fill="#0c3944" d="M250.245 304.832l-93.553-62.626.199-50.631 93.553 62.627z"/>
  <path fill="#237c89" d="M250.444 254.202l-93.553-62.627 46.757-19.847 93.553 62.627z"/>
  <path fill="#42d6e5" d="M297.201 234.355l-.199 50.63-46.757 19.847.199-50.63z"/>
  <path fill="#0c3944" d="M109.837 415l-93.553-62.627.199-50.653 93.553 62.627z"/>
  <path fill="#237c89" d="M110.036 364.347L16.483 301.72l46.737-19.838 93.553 62.627z"/>
  <path fill="#42d6e5" d="M156.773 344.509l-.2 50.653L109.837 415l.199-50.653z"/>
  <path fill="#0c3944" d="M156.773 344.509L63.22 281.882l.199-50.63 93.552 62.627z"/>
  <path fill="#237c89" d="M156.971 293.879l-93.552-62.627 46.736-19.838 93.553 62.627z"/>
  <path fill="#42d6e5" d="M203.708 274.041l-.199 50.63-46.736 19.838.198-50.63z"/>
  <path fill="#0c3944" d="M297.599 133.095l-93.553-62.627.199-50.63 93.553 62.627z"/>
  <path fill="#237c89" d="M297.798 82.465l-93.553-62.627L250.981 0l93.553 62.627z"/>
  <path fill="#42d6e5" d="M344.534 62.627l-.199 50.63-46.736 19.838.199-50.63z"/>
  <path fill="#0c3944" d="M203.708 274.041l-93.553-62.627.199-50.63 93.553 62.627z"/>
  <path fill="#237c89" d="M203.907 223.411l-93.553-62.627 46.736-19.838 93.553 62.626z"/>
  <path fill="#42d6e5" d="M250.643 203.572l-.199 50.63-46.736 19.839.199-50.63z"/>
  <path fill="#0c3944" d="M250.643 203.572l-93.553-62.626.199-50.63 93.553 62.626z"/>
  <path fill="#237c89" d="M250.842 152.942l-93.553-62.626 46.757-19.848 93.553 62.627z"/>
  <path fill="#42d6e5" d="M297.599 133.095l-.199 50.63-46.757 19.847.199-50.63z"/>
  <g>
    <path fill="#0c3944" d="M157.17 243.249l-93.552-62.627.199-50.63 93.552 62.627z"/>
    <path fill="#237c89" d="M157.369 192.619l-93.552-62.627 46.736-19.838 93.552 62.627z"/>
    <path fill="#42d6e5" d="M204.105 172.781l-.198 50.63-46.737 19.838.199-50.63z"/>
  </g>
  <g>
    <path fill="#0c3944" d="M110.633 212.457L17.08 149.83l.199-50.63 93.553 62.627z"/>
    <path fill="#237c89" d="M110.832 161.827L17.279 99.2l46.736-19.838 93.553 62.627z"/>
    <path fill="#42d6e5" d="M157.568 141.989l-.199 50.63-46.736 19.838.199-50.63z"/>
  </g>
</svg>