<svg version="1.1" viewBox="-379 181 200 200" xmlns="http://www.w3.org/2000/svg"><style type="text/css">.st0{fill:#EDFEFF;}</style><path class="st0" d="m-371 252.7c4.4 0 8-3.6 8-8v-47.8h47.8c4.4 0 8-3.6 8-8s-3.6-8-8-8h-55.8c-4.4 0.1-8 3.7-8 8.1v55.8c0 4.3 3.6 7.9 8 7.9z"/><path class="st0" d="m-242.7 196.9h47.8v47.8c0 4.4 3.6 8 8 8s8-3.6 8-8v-55.7c0-4.4-3.6-8-8-8h-55.8c-4.4 0-8 3.6-8 8s3.6 7.9 8 7.9z"/><path class="st0" d="m-242.7 381h55.7c4.4 0 8-3.6 8-8v-55.8c0-4.4-3.6-8-8-8s-8 3.6-8 8v47.8h-47.8c-4.4 0-8 3.6-8 8s3.7 8 8.1 8z"/><path class="st0" d="m-371 381h55.8c4.4 0 8-3.6 8-8s-3.6-8-8-8h-47.9v-47.8c0-4.4-3.6-8-8-8s-8 3.6-8 8v55.8c0.1 4.4 3.7 8 8.1 8z"/></svg>