<?xml version="1.0" encoding="utf-8"?>
<!-- Generator: Adobe Illustrator 19.0.0, SVG Export Plug-In . SVG Version: 6.00 Build 0)  -->
<svg version="1.1" id="Layer_1" xmlns="http://www.w3.org/2000/svg" xmlns:xlink="http://www.w3.org/1999/xlink" x="0px" y="0px"
	 viewBox="-379 181 200 200" style="enable-background:new -379 181 200 200;" xml:space="preserve">
<style type="text/css">
	.st0{fill:#EDFEFF;}
</style>
<g id="XMLID_6_">
	<path id="XMLID_4_" class="st0" d="M-371,252.7c4.4,0,8-3.6,8-8v-47.8h47.8c4.4,0,8-3.6,8-8c0-4.4-3.6-8-8-8H-371
		c-4.4,0.1-8,3.7-8,8.1v55.8C-379,249.1-375.4,252.7-371,252.7z"/>
	<path id="XMLID_3_" class="st0" d="M-242.7,196.9h47.8v47.8c0,4.4,3.6,8,8,8s8-3.6,8-8V189c0-4.4-3.6-8-8-8h-55.8c-4.4,0-8,3.6-8,8
		S-247.1,196.9-242.7,196.9z"/>
	<path id="XMLID_2_" class="st0" d="M-242.7,381h55.7c4.4,0,8-3.6,8-8v-55.8c0-4.4-3.6-8-8-8s-8,3.6-8,8V365h-47.8c-4.4,0-8,3.6-8,8
		S-247.1,381-242.7,381z"/>
	<path id="XMLID_1_" class="st0" d="M-371,381h55.8c4.4,0,8-3.6,8-8s-3.6-8-8-8h-47.9v-47.8c0-4.4-3.6-8-8-8s-8,3.6-8,8V373
		C-379,377.4-375.4,381-371,381z"/>
</g>
</svg>
